<svg xmlns="http://www.w3.org/2000/svg" xmlns:xlink="http://www.w3.org/1999/xlink" width="2000" zoomAndPan="magnify" viewBox="0 0 1500 454.499987" height="606" preserveAspectRatio="xMidYMid meet" version="1.0"><defs><clipPath id="e42fdaa471"><path d="M 6 0 L 870 0 L 870 454 L 6 454 Z M 6 0 " clip-rule="nonzero"/></clipPath></defs><path fill="#ff5a00" d="M 1361.164062 439.140625 L 1300.3125 370.894531 L 1239.996094 439.140625 L 1113.078125 439.140625 L 1237.121094 299.777344 L 1113.078125 160.375 L 1243.957031 160.375 L 1305.425781 228.097656 L 1364.570312 160.375 L 1490.875 160.375 L 1367.445312 299.191406 L 1492.589844 439.140625 Z M 869.367188 439.140625 L 869.367188 0 L 1113.078125 0 L 1113.078125 97.882812 L 972.597656 97.882812 L 972.597656 160.375 L 1113.078125 160.375 L 1113.078125 254.5625 L 972.597656 254.5625 L 972.597656 341.007812 L 1113.078125 341.007812 L 1113.078125 439.140625 Z M 869.367188 439.140625 " fill-opacity="1" fill-rule="nonzero"/><g clip-path="url(#e42fdaa471)"><path fill="#4d148c" d="M 766.515625 0 L 766.515625 179.71875 L 765.375 179.71875 C 742.613281 153.558594 714.164062 144.441406 681.175781 144.441406 C 613.582031 144.441406 562.660156 190.425781 544.785156 251.175781 C 524.394531 184.226562 471.816406 143.191406 393.875 143.191406 C 330.558594 143.191406 280.578125 171.597656 254.472656 217.902344 L 254.472656 160.367188 L 123.621094 160.367188 L 123.621094 97.894531 L 266.433594 97.894531 L 266.433594 0.0195312 L 6.980469 0.0195312 L 6.980469 439.140625 L 123.621094 439.140625 L 123.621094 254.5625 L 239.882812 254.5625 C 236.289062 268.8125 234.511719 283.285156 234.554688 297.980469 C 234.554688 389.539062 304.523438 453.882812 393.851562 453.882812 C 468.945312 453.882812 518.46875 418.59375 544.640625 354.355469 L 444.671875 354.355469 C 431.160156 373.6875 420.894531 379.398438 393.863281 379.398438 C 362.527344 379.398438 335.484375 352.046875 335.484375 319.664062 L 539.035156 319.664062 C 547.863281 392.40625 604.535156 455.125 682.316406 455.125 C 715.867188 455.125 746.585938 438.625 765.363281 410.75 L 766.492188 410.75 L 766.492188 439.199219 L 869.335938 439.199219 L 869.335938 0.0195312 L 766.515625 0.0195312 Z M 338.730469 255.878906 C 345.230469 227.972656 366.863281 209.738281 393.863281 209.738281 C 423.59375 209.738281 444.128906 227.40625 449.519531 255.878906 Z M 704.101562 372.3125 C 666.207031 372.3125 642.65625 337.003906 642.65625 300.128906 C 642.65625 260.703125 663.148438 222.828125 704.101562 222.828125 C 746.597656 222.828125 763.527344 260.722656 763.527344 300.128906 C 763.527344 337.476562 745.601562 372.3125 704.101562 372.3125 Z M 704.101562 372.3125 " fill-opacity="1" fill-rule="nonzero"/></g></svg>