<svg width="15" height="15" viewBox="0 0 15 15" fill="none" xmlns="http://www.w3.org/2000/svg">
<path d="M0.980797 0C0.82013 0 0.666043 0.0658481 0.552434 0.183058C0.438825 0.300269 0.375 0.45924 0.375 0.625C0.375 0.79076 0.438825 0.949731 0.552434 1.06694C0.666043 1.18415 0.82013 1.25 0.980797 1.25H1.27885C1.41039 1.25023 1.53829 1.29464 1.64321 1.3765C1.74813 1.45836 1.82437 1.57323 1.86041 1.70375L3.782 8.64125C3.89068 9.03276 4.11996 9.37711 4.43517 9.62225C4.75038 9.8674 5.13439 9.99999 5.52912 10H11.0649C11.4282 10.0001 11.7832 9.88779 12.084 9.67768C12.3848 9.46757 12.6177 9.16926 12.7526 8.82125L14.5385 4.21375C14.6119 4.02416 14.6392 3.8189 14.618 3.61591C14.5968 3.41293 14.5277 3.2184 14.4168 3.04932C14.3058 2.88025 14.1565 2.74178 13.9817 2.64602C13.8069 2.55026 13.6121 2.50013 13.4142 2.5H3.34098L3.02476 1.36C2.91635 0.968466 2.68735 0.623983 2.37236 0.378621C2.05738 0.133259 1.67353 0.00035546 1.27885 0H0.980797ZM5.82717 15C6.06584 15 6.30216 14.9515 6.52266 14.8573C6.74315 14.763 6.9435 14.6249 7.11226 14.4508C7.28102 14.2767 7.41489 14.07 7.50622 13.8425C7.59755 13.615 7.64456 13.3712 7.64456 13.125C7.64456 12.8788 7.59755 12.635 7.50622 12.4075C7.41489 12.18 7.28102 11.9733 7.11226 11.7992C6.9435 11.6251 6.74315 11.487 6.52266 11.3927C6.30216 11.2985 6.06584 11.25 5.82717 11.25C5.34517 11.25 4.88291 11.4475 4.54208 11.7992C4.20126 12.1508 4.00978 12.6277 4.00978 13.125C4.00978 13.6223 4.20126 14.0992 4.54208 14.4508C4.88291 14.8025 5.34517 15 5.82717 15ZM10.6735 15C10.9122 15 11.1485 14.9515 11.369 14.8573C11.5895 14.763 11.7899 14.6249 11.9586 14.4508C12.1274 14.2767 12.2613 14.07 12.3526 13.8425C12.4439 13.615 12.4909 13.3712 12.4909 13.125C12.4909 12.8788 12.4439 12.635 12.3526 12.4075C12.2613 12.18 12.1274 11.9733 11.9586 11.7992C11.7899 11.6251 11.5895 11.487 11.369 11.3927C11.1485 11.2985 10.9122 11.25 10.6735 11.25C10.1915 11.25 9.72928 11.4475 9.38846 11.7992C9.04763 12.1508 8.85616 12.6277 8.85616 13.125C8.85616 13.6223 9.04763 14.0992 9.38846 14.4508C9.72928 14.8025 10.1915 15 10.6735 15Z" fill="white"/>
</svg>
