<svg xmlns="http://www.w3.org/2000/svg" xmlns:xlink="http://www.w3.org/1999/xlink" width="1000" zoomAndPan="magnify" viewBox="0 0 750 894.74999" height="1193" preserveAspectRatio="xMidYMid meet" version="1.0"><path fill="#301506" d="M 25.667969 271.546875 L 28.851562 632.667969 L 110.003906 732.890625 L 353.472656 861.75 L 652.628906 715.390625 L 714.6875 567.441406 L 708.320312 88.589844 L 482.363281 82.226562 L 246.863281 120.410156 L 32.042969 244.492188 Z M 25.667969 271.546875 " fill-opacity="1" fill-rule="evenodd"/><path fill="#fab80a" d="M 374.253906 10.582031 C 232.4375 10.582031 108.738281 38.03125 6.5625 92.160156 L 6.5625 524.917969 C 6.5625 615.976562 40.785156 692.121094 105.515625 745.167969 C 165.613281 794.457031 351.484375 875.679688 374.261719 885.542969 C 395.859375 876.144531 583.933594 793.667969 643.078125 745.167969 C 707.769531 692.148438 742.003906 615.980469 742.003906 524.917969 L 742.003906 92.160156 C 639.816406 38.023438 516.113281 10.574219 374.242188 10.574219 Z M 584.242188 94.375 C 626.53125 94.925781 668.058594 97.539062 708.199219 101.269531 L 708.199219 524.914062 C 708.199219 606.324219 678.648438 672.085938 621.636719 719.035156 C 570.703125 760.96875 417.117188 829.765625 374.261719 848.652344 C 330.832031 829.507812 176.859375 759.847656 126.84375 719.054688 C 70.167969 672.90625 40.335938 605.585938 40.335938 524.929688 L 40.335938 277.386719 C 203.203125 128.058594 400.976562 91.988281 584.226562 94.382812 Z M 383.839844 291.640625 C 348.949219 291.640625 320.792969 299.4375 297.617188 314.394531 L 297.617188 731.210938 L 361.613281 731.210938 L 361.613281 596.550781 C 368 598.433594 377.269531 600.195312 390.402344 600.195312 C 461.390625 600.195312 502.191406 536.214844 502.191406 442.804688 C 502.191406 349.574219 460.179688 291.640625 383.84375 291.640625 Z M 602.511719 291.640625 C 560.425781 292.859375 516.410156 323.339844 516.679688 375.011719 C 516.785156 409.035156 526.21875 434.480469 578.964844 465.421875 C 607.113281 481.9375 618.453125 492.824219 618.9375 512.894531 C 619.476562 535.207031 604.054688 548.660156 580.589844 548.570312 C 560.175781 548.410156 535.769531 537.082031 519.425781 522.535156 L 519.425781 581.414062 C 539.464844 593.359375 564.46875 601.253906 589.726562 601.253906 C 652.949219 601.253906 681.179688 556.609375 682.402344 515.695312 C 683.601562 478.40625 673.296875 450.191406 619.832031 418.785156 C 595.972656 404.796875 577.128906 395.601562 577.757812 372.320312 C 578.386719 349.59375 597.257812 341.613281 615.378906 341.773438 C 637.730469 341.972656 659.355469 354.347656 672.703125 368.035156 L 672.703125 312.433594 C 661.453125 303.769531 637.636719 290.5625 602.511719 291.636719 Z M 73.015625 298.113281 L 73.015625 499.167969 C 73.015625 566.949219 105.085938 601.261719 168.378906 601.261719 C 207.542969 601.261719 240.34375 592.199219 264.777344 575.589844 L 264.777344 298.113281 L 200.921875 298.113281 L 200.921875 539.1875 C 193.960938 543.957031 183.636719 547.007812 170.648438 547.007812 C 141.332031 547.007812 136.953125 520.132812 136.953125 502 L 136.953125 298.117188 L 73.011719 298.117188 Z M 384.269531 343.148438 C 421.390625 343.148438 436.773438 372.777344 436.773438 444.429688 C 436.773438 514.34375 419.179688 548.125 382.367188 548.125 C 373.699219 548.125 366.167969 545.976562 361.59375 544.257812 L 361.59375 347.78125 C 366.777344 345.195312 375.589844 343.15625 384.269531 343.15625 Z M 384.269531 343.148438 " fill-opacity="1" fill-rule="nonzero"/></svg>