<svg xmlns="http://www.w3.org/2000/svg" xmlns:xlink="http://www.w3.org/1999/xlink" width="1500" zoomAndPan="magnify" viewBox="0 0 1125 1046.250013" height="1395" preserveAspectRatio="xMidYMid meet" version="1.0"><defs><clipPath id="83765a1ab2"><path d="M 758 392 L 1124.597656 392 L 1124.597656 889 L 758 889 Z M 758 392 " clip-rule="nonzero"/></clipPath><clipPath id="658283e5af"><path d="M 314 392 L 890 392 L 890 1045.5 L 314 1045.5 Z M 314 392 " clip-rule="nonzero"/></clipPath><clipPath id="a344586c00"><path d="M 0.402344 235 L 576 235 L 576 811 L 0.402344 811 Z M 0.402344 235 " clip-rule="nonzero"/></clipPath></defs><g clip-path="url(#83765a1ab2)"><path fill="#2c2c2c" d="M 784.488281 392.0625 L 1074.792969 392.0625 C 1076.417969 392.0625 1078.042969 392.144531 1079.660156 392.300781 C 1081.28125 392.460938 1082.886719 392.699219 1084.484375 393.019531 C 1086.078125 393.335938 1087.652344 393.730469 1089.210938 394.203125 C 1090.765625 394.675781 1092.296875 395.222656 1093.800781 395.84375 C 1095.300781 396.46875 1096.769531 397.160156 1098.207031 397.929688 C 1099.640625 398.695312 1101.035156 399.53125 1102.386719 400.433594 C 1103.738281 401.339844 1105.042969 402.304688 1106.300781 403.339844 C 1107.558594 404.371094 1108.761719 405.460938 1109.910156 406.613281 C 1111.0625 407.761719 1112.152344 408.964844 1113.183594 410.222656 C 1114.214844 411.480469 1115.183594 412.785156 1116.085938 414.140625 C 1116.992188 415.492188 1117.824219 416.886719 1118.59375 418.320312 C 1119.359375 419.753906 1120.054688 421.222656 1120.675781 422.726562 C 1121.296875 424.230469 1121.84375 425.757812 1122.316406 427.316406 C 1122.789062 428.871094 1123.183594 430.449219 1123.5 432.042969 C 1123.816406 433.640625 1124.054688 435.246094 1124.214844 436.863281 C 1124.375 438.484375 1124.453125 440.105469 1124.453125 441.734375 L 1124.453125 706.167969 C 1124.453125 806.96875 1042.761719 888.683594 941.9375 888.683594 L 941.074219 888.683594 C 840.273438 888.683594 758.53125 806.996094 758.53125 706.191406 L 758.53125 418.03125 C 758.53125 417.183594 758.574219 416.335938 758.65625 415.488281 C 758.742188 414.644531 758.867188 413.804688 759.03125 412.96875 C 759.199219 412.136719 759.402344 411.3125 759.648438 410.5 C 759.898438 409.683594 760.183594 408.886719 760.507812 408.101562 C 760.832031 407.316406 761.195312 406.546875 761.597656 405.796875 C 762 405.046875 762.433594 404.320312 762.90625 403.613281 C 763.378906 402.90625 763.886719 402.226562 764.425781 401.566406 C 764.964844 400.910156 765.535156 400.28125 766.132812 399.679688 C 766.734375 399.078125 767.363281 398.507812 768.023438 397.96875 C 768.679688 397.429688 769.359375 396.925781 770.066406 396.453125 C 770.773438 395.980469 771.503906 395.542969 772.253906 395.144531 C 773 394.742188 773.769531 394.378906 774.554688 394.054688 C 775.339844 393.730469 776.140625 393.441406 776.953125 393.195312 C 777.765625 392.949219 778.589844 392.742188 779.421875 392.578125 C 780.257812 392.410156 781.097656 392.285156 781.941406 392.203125 C 782.789062 392.121094 783.636719 392.078125 784.488281 392.078125 Z M 784.488281 392.0625 " fill-opacity="1" fill-rule="nonzero"/></g><path fill="#2c2c2c" d="M 1098.316406 222.167969 C 1098.316406 224.09375 1098.269531 226.015625 1098.175781 227.9375 C 1098.082031 229.863281 1097.9375 231.78125 1097.75 233.695312 C 1097.5625 235.613281 1097.324219 237.523438 1097.042969 239.425781 C 1096.761719 241.328125 1096.433594 243.226562 1096.058594 245.113281 C 1095.679688 247 1095.257812 248.878906 1094.792969 250.746094 C 1094.324219 252.613281 1093.8125 254.46875 1093.253906 256.308594 C 1092.691406 258.152344 1092.089844 259.980469 1091.441406 261.792969 C 1090.792969 263.605469 1090.101562 265.398438 1089.363281 267.179688 C 1088.625 268.957031 1087.847656 270.714844 1087.023438 272.457031 C 1086.199219 274.195312 1085.335938 275.914062 1084.429688 277.613281 C 1083.519531 279.308594 1082.574219 280.984375 1081.582031 282.636719 C 1080.59375 284.285156 1079.5625 285.914062 1078.496094 287.511719 C 1077.425781 289.113281 1076.316406 290.6875 1075.171875 292.234375 C 1074.023438 293.777344 1072.839844 295.296875 1071.617188 296.785156 C 1070.398438 298.273438 1069.140625 299.730469 1067.847656 301.15625 C 1066.554688 302.582031 1065.226562 303.976562 1063.867188 305.335938 C 1062.507812 306.699219 1061.113281 308.023438 1059.6875 309.316406 C 1058.261719 310.609375 1056.804688 311.867188 1055.316406 313.089844 C 1053.828125 314.308594 1052.308594 315.492188 1050.765625 316.640625 C 1049.21875 317.785156 1047.644531 318.894531 1046.042969 319.964844 C 1044.441406 321.035156 1042.816406 322.0625 1041.167969 323.050781 C 1039.515625 324.042969 1037.839844 324.992188 1036.144531 325.898438 C 1034.445312 326.804688 1032.726562 327.671875 1030.988281 328.492188 C 1029.246094 329.316406 1027.488281 330.097656 1025.710938 330.832031 C 1023.929688 331.570312 1022.136719 332.261719 1020.324219 332.910156 C 1018.511719 333.558594 1016.683594 334.164062 1014.839844 334.722656 C 1013 335.28125 1011.144531 335.792969 1009.277344 336.261719 C 1007.410156 336.730469 1005.53125 337.152344 1003.644531 337.527344 C 1001.757812 337.902344 999.859375 338.230469 997.957031 338.511719 C 996.054688 338.796875 994.144531 339.03125 992.226562 339.21875 C 990.3125 339.410156 988.390625 339.550781 986.46875 339.644531 C 984.546875 339.738281 982.625 339.785156 980.699219 339.785156 C 978.773438 339.785156 976.851562 339.738281 974.925781 339.644531 C 973.003906 339.550781 971.085938 339.410156 969.171875 339.21875 C 967.253906 339.03125 965.34375 338.796875 963.441406 338.511719 C 961.535156 338.230469 959.640625 337.902344 957.753906 337.527344 C 955.863281 337.152344 953.988281 336.730469 952.121094 336.261719 C 950.253906 335.792969 948.398438 335.28125 946.554688 334.722656 C 944.714844 334.164062 942.886719 333.558594 941.074219 332.910156 C 939.261719 332.261719 937.464844 331.570312 935.6875 330.832031 C 933.910156 330.097656 932.152344 329.316406 930.410156 328.492188 C 928.671875 327.671875 926.953125 326.804688 925.253906 325.898438 C 923.554688 324.992188 921.882812 324.042969 920.230469 323.050781 C 918.578125 322.0625 916.953125 321.035156 915.351562 319.964844 C 913.753906 318.894531 912.179688 317.785156 910.632812 316.640625 C 909.085938 315.492188 907.570312 314.308594 906.082031 313.089844 C 904.59375 311.867188 903.136719 310.609375 901.710938 309.316406 C 900.285156 308.023438 898.890625 306.699219 897.53125 305.335938 C 896.167969 303.976562 894.84375 302.582031 893.550781 301.15625 C 892.257812 299.730469 891 298.273438 889.777344 296.785156 C 888.558594 295.296875 887.375 293.777344 886.226562 292.234375 C 885.082031 290.6875 883.972656 289.113281 882.902344 287.511719 C 881.832031 285.914062 880.804688 284.285156 879.8125 282.636719 C 878.824219 280.984375 877.875 279.308594 876.96875 277.613281 C 876.0625 275.914062 875.195312 274.195312 874.371094 272.457031 C 873.550781 270.714844 872.769531 268.957031 872.035156 267.179688 C 871.296875 265.398438 870.605469 263.605469 869.957031 261.792969 C 869.308594 259.980469 868.703125 258.152344 868.144531 256.308594 C 867.585938 254.46875 867.074219 252.613281 866.605469 250.746094 C 866.136719 248.878906 865.714844 247 865.339844 245.113281 C 864.964844 243.226562 864.636719 241.328125 864.351562 239.425781 C 864.070312 237.523438 863.835938 235.613281 863.648438 233.695312 C 863.457031 231.78125 863.316406 229.863281 863.222656 227.9375 C 863.128906 226.015625 863.082031 224.09375 863.082031 222.167969 C 863.082031 220.242188 863.128906 218.320312 863.222656 216.394531 C 863.316406 214.472656 863.457031 212.554688 863.648438 210.640625 C 863.835938 208.722656 864.070312 206.8125 864.351562 204.910156 C 864.636719 203.003906 864.964844 201.109375 865.339844 199.222656 C 865.714844 197.332031 866.136719 195.457031 866.605469 193.589844 C 867.074219 191.722656 867.585938 189.867188 868.144531 188.023438 C 868.703125 186.183594 869.308594 184.355469 869.957031 182.542969 C 870.605469 180.730469 871.296875 178.933594 872.035156 177.15625 C 872.769531 175.378906 873.550781 173.617188 874.371094 171.878906 C 875.195312 170.140625 876.0625 168.421875 876.96875 166.722656 C 877.875 165.023438 878.824219 163.351562 879.8125 161.699219 C 880.804688 160.046875 881.832031 158.421875 882.902344 156.820312 C 883.972656 155.222656 885.082031 153.648438 886.226562 152.101562 C 887.375 150.554688 888.558594 149.039062 889.777344 147.550781 C 891 146.0625 892.257812 144.605469 893.550781 143.179688 C 894.84375 141.753906 896.167969 140.359375 897.53125 139 C 898.890625 137.636719 900.285156 136.308594 901.710938 135.019531 C 903.136719 133.726562 904.59375 132.46875 906.082031 131.246094 C 907.570312 130.027344 909.085938 128.839844 910.632812 127.695312 C 912.179688 126.546875 913.753906 125.441406 915.351562 124.371094 C 916.953125 123.300781 918.578125 122.273438 920.230469 121.28125 C 921.882812 120.292969 923.554688 119.34375 925.253906 118.4375 C 926.953125 117.53125 928.671875 116.664062 930.410156 115.839844 C 932.152344 115.019531 933.910156 114.238281 935.6875 113.5 C 937.464844 112.765625 939.261719 112.074219 941.074219 111.425781 C 942.886719 110.777344 944.714844 110.171875 946.554688 109.613281 C 948.398438 109.054688 950.253906 108.542969 952.121094 108.074219 C 953.988281 107.605469 955.863281 107.183594 957.753906 106.808594 C 959.640625 106.433594 961.535156 106.105469 963.441406 105.820312 C 965.34375 105.539062 967.253906 105.304688 969.171875 105.113281 C 971.085938 104.925781 973.003906 104.785156 974.925781 104.691406 C 976.851562 104.597656 978.773438 104.546875 980.699219 104.546875 C 982.625 104.546875 984.546875 104.597656 986.46875 104.691406 C 988.390625 104.785156 990.3125 104.925781 992.226562 105.113281 C 994.144531 105.304688 996.054688 105.539062 997.957031 105.820312 C 999.859375 106.105469 1001.757812 106.433594 1003.644531 106.808594 C 1005.53125 107.183594 1007.410156 107.605469 1009.277344 108.074219 C 1011.144531 108.542969 1013 109.054688 1014.839844 109.613281 C 1016.683594 110.171875 1018.511719 110.777344 1020.324219 111.425781 C 1022.136719 112.074219 1023.929688 112.765625 1025.710938 113.5 C 1027.488281 114.238281 1029.246094 115.019531 1030.988281 115.839844 C 1032.726562 116.664062 1034.445312 117.53125 1036.144531 118.4375 C 1037.839844 119.34375 1039.515625 120.292969 1041.167969 121.28125 C 1042.816406 122.273438 1044.441406 123.300781 1046.042969 124.371094 C 1047.644531 125.441406 1049.21875 126.546875 1050.765625 127.695312 C 1052.308594 128.839844 1053.828125 130.027344 1055.316406 131.246094 C 1056.804688 132.46875 1058.261719 133.726562 1059.6875 135.019531 C 1061.113281 136.308594 1062.507812 137.636719 1063.867188 139 C 1065.226562 140.359375 1066.554688 141.753906 1067.847656 143.179688 C 1069.140625 144.605469 1070.398438 146.0625 1071.617188 147.550781 C 1072.839844 149.039062 1074.023438 150.554688 1075.171875 152.101562 C 1076.316406 153.648438 1077.425781 155.222656 1078.496094 156.820312 C 1079.5625 158.421875 1080.59375 160.046875 1081.582031 161.699219 C 1082.574219 163.351562 1083.519531 165.023438 1084.429688 166.722656 C 1085.335938 168.421875 1086.199219 170.140625 1087.023438 171.878906 C 1087.847656 173.617188 1088.625 175.378906 1089.363281 177.15625 C 1090.101562 178.933594 1090.792969 180.730469 1091.441406 182.542969 C 1092.089844 184.355469 1092.691406 186.183594 1093.253906 188.023438 C 1093.8125 189.867188 1094.324219 191.722656 1094.792969 193.589844 C 1095.257812 195.457031 1095.679688 197.332031 1096.058594 199.222656 C 1096.433594 201.109375 1096.761719 203.003906 1097.042969 204.910156 C 1097.324219 206.8125 1097.5625 208.722656 1097.75 210.640625 C 1097.9375 212.554688 1098.082031 214.472656 1098.175781 216.394531 C 1098.269531 218.320312 1098.316406 220.242188 1098.316406 222.167969 Z M 1098.316406 222.167969 " fill-opacity="1" fill-rule="nonzero"/><path fill="#444444" d="M 784.667969 169.894531 C 784.667969 172.675781 784.601562 175.457031 784.464844 178.230469 C 784.328125 181.007812 784.121094 183.78125 783.851562 186.546875 C 783.578125 189.316406 783.238281 192.074219 782.828125 194.824219 C 782.421875 197.574219 781.945312 200.3125 781.402344 203.039062 C 780.863281 205.769531 780.253906 208.480469 779.578125 211.175781 C 778.902344 213.875 778.160156 216.554688 777.351562 219.214844 C 776.546875 221.875 775.671875 224.515625 774.738281 227.132812 C 773.800781 229.75 772.800781 232.34375 771.734375 234.910156 C 770.671875 237.480469 769.546875 240.023438 768.355469 242.535156 C 767.167969 245.050781 765.917969 247.53125 764.605469 249.984375 C 763.296875 252.4375 761.925781 254.855469 760.496094 257.238281 C 759.066406 259.625 757.582031 261.972656 756.035156 264.285156 C 754.492188 266.597656 752.890625 268.871094 751.234375 271.101562 C 749.578125 273.335938 747.867188 275.527344 746.105469 277.675781 C 744.339844 279.824219 742.523438 281.929688 740.65625 283.992188 C 738.789062 286.050781 736.875 288.0625 734.90625 290.03125 C 732.941406 291.996094 730.929688 293.914062 728.867188 295.78125 C 726.808594 297.648438 724.703125 299.464844 722.554688 301.226562 C 720.40625 302.992188 718.214844 304.699219 715.980469 306.355469 C 713.746094 308.011719 711.472656 309.613281 709.164062 311.160156 C 706.851562 312.703125 704.5 314.191406 702.117188 315.621094 C 699.730469 317.050781 697.3125 318.417969 694.863281 319.730469 C 692.410156 321.042969 689.925781 322.289062 687.414062 323.480469 C 684.898438 324.667969 682.359375 325.796875 679.789062 326.859375 C 677.222656 327.921875 674.628906 328.921875 672.007812 329.859375 C 669.390625 330.796875 666.753906 331.667969 664.089844 332.476562 C 661.429688 333.28125 658.75 334.023438 656.054688 334.699219 C 653.359375 335.375 650.644531 335.984375 647.917969 336.527344 C 645.191406 337.070312 642.453125 337.542969 639.703125 337.953125 C 636.953125 338.359375 634.195312 338.699219 631.425781 338.972656 C 628.660156 339.246094 625.886719 339.449219 623.109375 339.585938 C 620.332031 339.722656 617.554688 339.792969 614.773438 339.792969 C 611.992188 339.792969 609.214844 339.722656 606.4375 339.585938 C 603.660156 339.449219 600.886719 339.246094 598.121094 338.972656 C 595.355469 338.699219 592.59375 338.359375 589.84375 337.953125 C 587.09375 337.542969 584.355469 337.070312 581.628906 336.527344 C 578.902344 335.984375 576.191406 335.375 573.492188 334.699219 C 570.796875 334.023438 568.117188 333.28125 565.457031 332.476562 C 562.796875 331.667969 560.15625 330.796875 557.539062 329.859375 C 554.921875 328.921875 552.328125 327.921875 549.757812 326.859375 C 547.1875 325.796875 544.648438 324.667969 542.132812 323.480469 C 539.621094 322.289062 537.136719 321.042969 534.6875 319.730469 C 532.234375 318.417969 529.816406 317.050781 527.429688 315.621094 C 525.046875 314.191406 522.695312 312.703125 520.386719 311.160156 C 518.074219 309.613281 515.800781 308.015625 513.566406 306.355469 C 511.335938 304.699219 509.144531 302.992188 506.992188 301.226562 C 504.84375 299.464844 502.738281 297.648438 500.679688 295.78125 C 498.621094 293.914062 496.605469 291.996094 494.640625 290.03125 C 492.675781 288.0625 490.757812 286.050781 488.890625 283.992188 C 487.023438 281.929688 485.207031 279.824219 483.445312 277.675781 C 481.679688 275.527344 479.96875 273.335938 478.3125 271.101562 C 476.65625 268.871094 475.054688 266.597656 473.511719 264.285156 C 471.96875 261.972656 470.480469 259.625 469.050781 257.238281 C 467.621094 254.855469 466.25 252.4375 464.941406 249.984375 C 463.628906 247.53125 462.378906 245.050781 461.191406 242.535156 C 460.003906 240.023438 458.875 237.480469 457.8125 234.914062 C 456.746094 232.34375 455.746094 229.75 454.808594 227.132812 C 453.875 224.515625 453 221.875 452.195312 219.214844 C 451.386719 216.554688 450.644531 213.875 449.972656 211.175781 C 449.296875 208.480469 448.6875 205.769531 448.144531 203.039062 C 447.601562 200.3125 447.125 197.574219 446.71875 194.824219 C 446.308594 192.074219 445.96875 189.316406 445.699219 186.546875 C 445.425781 183.78125 445.21875 181.007812 445.082031 178.230469 C 444.949219 175.457031 444.878906 172.675781 444.878906 169.894531 C 444.878906 167.117188 444.949219 164.335938 445.082031 161.558594 C 445.21875 158.78125 445.425781 156.011719 445.699219 153.242188 C 445.96875 150.476562 446.308594 147.71875 446.71875 144.96875 C 447.125 142.214844 447.601562 139.476562 448.144531 136.75 C 448.6875 134.023438 449.296875 131.3125 449.96875 128.613281 C 450.644531 125.917969 451.386719 123.238281 452.195312 120.578125 C 453 117.917969 453.875 115.277344 454.808594 112.660156 C 455.746094 110.042969 456.746094 107.449219 457.8125 104.878906 C 458.875 102.3125 460.003906 99.769531 461.191406 97.257812 C 462.378906 94.742188 463.628906 92.257812 464.941406 89.808594 C 466.25 87.355469 467.621094 84.9375 469.050781 82.550781 C 470.480469 80.167969 471.964844 77.820312 473.511719 75.507812 C 475.054688 73.195312 476.65625 70.921875 478.3125 68.6875 C 479.96875 66.457031 481.679688 64.265625 483.445312 62.113281 C 485.207031 59.964844 487.023438 57.859375 488.890625 55.800781 C 490.757812 53.742188 492.675781 51.726562 494.640625 49.761719 C 496.605469 47.796875 498.621094 45.878906 500.679688 44.011719 C 502.738281 42.144531 504.84375 40.328125 506.992188 38.566406 C 509.144531 36.800781 511.335938 35.089844 513.566406 33.433594 C 515.800781 31.777344 518.074219 30.175781 520.386719 28.632812 C 522.695312 27.089844 525.046875 25.601562 527.429688 24.171875 C 529.816406 22.742188 532.234375 21.371094 534.6875 20.0625 C 537.136719 18.75 539.621094 17.5 542.132812 16.3125 C 544.648438 15.125 547.1875 13.996094 549.757812 12.933594 C 552.328125 11.867188 554.921875 10.867188 557.539062 9.929688 C 560.15625 8.996094 562.796875 8.121094 565.457031 7.316406 C 568.117188 6.507812 570.796875 5.765625 573.492188 5.089844 C 576.191406 4.414062 578.902344 3.808594 581.628906 3.265625 C 584.355469 2.722656 587.09375 2.246094 589.84375 1.839844 C 592.59375 1.429688 595.355469 1.089844 598.121094 0.816406 C 600.886719 0.546875 603.660156 0.339844 606.4375 0.203125 C 609.214844 0.0664062 611.992188 0 614.773438 0 C 617.554688 0 620.332031 0.0664062 623.109375 0.203125 C 625.886719 0.339844 628.660156 0.546875 631.425781 0.816406 C 634.195312 1.089844 636.953125 1.429688 639.703125 1.839844 C 642.453125 2.246094 645.191406 2.722656 647.917969 3.265625 C 650.644531 3.808594 653.359375 4.414062 656.054688 5.089844 C 658.75 5.765625 661.429688 6.507812 664.089844 7.316406 C 666.753906 8.121094 669.390625 8.996094 672.007812 9.929688 C 674.628906 10.867188 677.222656 11.867188 679.789062 12.933594 C 682.359375 13.996094 684.898438 15.125 687.414062 16.3125 C 689.925781 17.5 692.410156 18.75 694.863281 20.0625 C 697.3125 21.371094 699.730469 22.742188 702.117188 24.171875 C 704.5 25.601562 706.851562 27.089844 709.164062 28.632812 C 711.472656 30.175781 713.746094 31.777344 715.980469 33.433594 C 718.214844 35.089844 720.40625 36.800781 722.554688 38.566406 C 724.703125 40.328125 726.808594 42.144531 728.867188 44.011719 C 730.929688 45.878906 732.941406 47.796875 734.90625 49.761719 C 736.875 51.726562 738.789062 53.742188 740.65625 55.800781 C 742.523438 57.859375 744.339844 59.964844 746.105469 62.113281 C 747.867188 64.265625 749.578125 66.457031 751.234375 68.6875 C 752.890625 70.921875 754.492188 73.195312 756.035156 75.507812 C 757.582031 77.820312 759.066406 80.167969 760.496094 82.550781 C 761.925781 84.9375 763.296875 87.355469 764.605469 89.808594 C 765.917969 92.257812 767.167969 94.742188 768.355469 97.257812 C 769.546875 99.769531 770.671875 102.3125 771.734375 104.878906 C 772.800781 107.449219 773.800781 110.042969 774.738281 112.660156 C 775.671875 115.277344 776.546875 117.917969 777.351562 120.578125 C 778.160156 123.238281 778.902344 125.917969 779.578125 128.613281 C 780.253906 131.3125 780.863281 134.023438 781.402344 136.75 C 781.945312 139.476562 782.421875 142.214844 782.828125 144.96875 C 783.238281 147.71875 783.578125 150.476562 783.851562 153.242188 C 784.121094 156.011719 784.328125 158.78125 784.464844 161.558594 C 784.601562 164.335938 784.667969 167.117188 784.667969 169.894531 Z M 784.667969 169.894531 " fill-opacity="1" fill-rule="nonzero"/><g clip-path="url(#658283e5af)"><path fill="#444444" d="M 841.304688 392.0625 L 362.101562 392.0625 C 360.492188 392.101562 358.890625 392.222656 357.296875 392.417969 C 355.699219 392.617188 354.117188 392.890625 352.550781 393.242188 C 350.980469 393.597656 349.433594 394.023438 347.90625 394.527344 C 346.382812 395.03125 344.882812 395.609375 343.414062 396.261719 C 341.941406 396.914062 340.507812 397.636719 339.109375 398.425781 C 337.710938 399.21875 336.355469 400.078125 335.039062 401.003906 C 333.726562 401.929688 332.457031 402.917969 331.242188 403.964844 C 330.023438 405.015625 328.859375 406.121094 327.75 407.285156 C 326.640625 408.449219 325.589844 409.664062 324.601562 410.933594 C 323.613281 412.199219 322.6875 413.511719 321.824219 414.867188 C 320.964844 416.226562 320.171875 417.621094 319.449219 419.058594 C 318.722656 420.492188 318.070312 421.960938 317.492188 423.460938 C 316.910156 424.960938 316.40625 426.484375 315.976562 428.03125 C 315.546875 429.582031 315.191406 431.148438 314.914062 432.730469 C 314.640625 434.316406 314.441406 435.910156 314.320312 437.511719 C 314.199219 439.117188 314.160156 440.722656 314.195312 442.328125 L 314.195312 743.925781 C 310.410156 906.5625 439.082031 1041.523438 601.707031 1045.5 C 764.335938 1041.523438 893.003906 906.5625 889.214844 743.953125 L 889.214844 442.328125 C 889.253906 440.722656 889.210938 439.117188 889.09375 437.511719 C 888.972656 435.910156 888.773438 434.316406 888.496094 432.730469 C 888.21875 431.148438 887.867188 429.582031 887.4375 428.03125 C 887.007812 426.484375 886.5 424.957031 885.921875 423.457031 C 885.339844 421.960938 884.6875 420.492188 883.964844 419.054688 C 883.242188 417.621094 882.449219 416.222656 881.585938 414.867188 C 880.726562 413.507812 879.800781 412.195312 878.808594 410.929688 C 877.820312 409.664062 876.769531 408.445312 875.660156 407.28125 C 874.550781 406.121094 873.386719 405.011719 872.171875 403.960938 C 870.953125 402.914062 869.6875 401.925781 868.371094 401 C 867.054688 400.074219 865.699219 399.214844 864.300781 398.425781 C 862.902344 397.632812 861.464844 396.910156 859.996094 396.257812 C 858.527344 395.609375 857.027344 395.03125 855.5 394.527344 C 853.972656 394.023438 852.425781 393.59375 850.859375 393.242188 C 849.289062 392.890625 847.707031 392.613281 846.109375 392.417969 C 844.515625 392.222656 842.914062 392.101562 841.304688 392.0625 Z M 841.304688 392.0625 " fill-opacity="1" fill-rule="nonzero"/></g><path fill="#000000" d="M 575.566406 283.066406 L 575.566406 335.082031 C 572.320312 334.3125 569.097656 333.449219 565.902344 332.488281 C 562.703125 331.53125 559.539062 330.480469 556.40625 329.332031 C 553.269531 328.1875 550.171875 326.949219 547.109375 325.625 C 544.046875 324.296875 541.027344 322.878906 538.050781 321.371094 C 535.074219 319.867188 532.140625 318.273438 529.257812 316.59375 C 526.371094 314.917969 523.539062 313.152344 520.757812 311.308594 C 517.980469 309.460938 515.253906 307.535156 512.589844 305.53125 C 509.921875 303.523438 507.316406 301.441406 504.769531 299.28125 C 502.226562 297.121094 499.75 294.890625 497.335938 292.582031 C 494.921875 290.277344 492.582031 287.902344 490.308594 285.457031 C 488.035156 283.015625 485.835938 280.507812 483.710938 277.933594 C 481.585938 275.359375 479.539062 272.726562 477.570312 270.03125 C 475.601562 267.335938 473.710938 264.585938 471.902344 261.78125 C 470.097656 258.976562 468.371094 256.121094 466.734375 253.214844 C 465.09375 250.304688 463.542969 247.351562 462.078125 244.355469 C 460.613281 241.355469 459.234375 238.316406 457.949219 235.238281 L 527.738281 235.238281 C 529.304688 235.242188 530.863281 235.328125 532.421875 235.484375 C 533.976562 235.644531 535.523438 235.878906 537.058594 236.1875 C 538.589844 236.496094 540.105469 236.882812 541.601562 237.339844 C 543.097656 237.796875 544.570312 238.328125 546.011719 238.929688 C 547.457031 239.53125 548.871094 240.199219 550.25 240.941406 C 551.628906 241.679688 552.96875 242.484375 554.265625 243.355469 C 555.566406 244.226562 556.820312 245.160156 558.03125 246.152344 C 559.242188 247.144531 560.398438 248.195312 561.503906 249.300781 C 562.609375 250.40625 563.660156 251.566406 564.65625 252.773438 C 565.648438 253.984375 566.578125 255.238281 567.449219 256.539062 C 568.320312 257.839844 569.125 259.179688 569.867188 260.558594 C 570.605469 261.9375 571.277344 263.347656 571.878906 264.792969 C 572.480469 266.238281 573.007812 267.707031 573.464844 269.203125 C 573.925781 270.699219 574.308594 272.214844 574.617188 273.75 C 574.925781 275.28125 575.160156 276.828125 575.320312 278.386719 C 575.480469 279.941406 575.5625 281.503906 575.566406 283.066406 Z M 575.566406 283.066406 " fill-opacity="0.2" fill-rule="nonzero"/><g clip-path="url(#a344586c00)"><path fill="#2c2c2c" d="M 48.453125 235.238281 L 527.652344 235.238281 C 529.222656 235.238281 530.789062 235.316406 532.347656 235.46875 C 533.910156 235.621094 535.460938 235.851562 537 236.160156 C 538.539062 236.464844 540.058594 236.84375 541.558594 237.300781 C 543.058594 237.757812 544.535156 238.285156 545.984375 238.882812 C 547.433594 239.484375 548.851562 240.15625 550.234375 240.894531 C 551.617188 241.632812 552.964844 242.441406 554.265625 243.3125 C 555.570312 244.183594 556.832031 245.117188 558.042969 246.113281 C 559.257812 247.105469 560.417969 248.160156 561.527344 249.269531 C 562.636719 250.378906 563.6875 251.539062 564.683594 252.753906 C 565.679688 253.964844 566.613281 255.222656 567.484375 256.527344 C 568.355469 257.832031 569.160156 259.175781 569.902344 260.5625 C 570.640625 261.945312 571.3125 263.359375 571.910156 264.808594 C 572.511719 266.261719 573.039062 267.734375 573.496094 269.238281 C 573.949219 270.738281 574.332031 272.257812 574.636719 273.796875 C 574.941406 275.335938 575.171875 276.886719 575.328125 278.449219 C 575.480469 280.007812 575.558594 281.574219 575.558594 283.144531 L 575.558594 762.347656 C 575.558594 763.917969 575.480469 765.480469 575.328125 767.042969 C 575.171875 768.605469 574.941406 770.15625 574.636719 771.695312 C 574.332031 773.230469 573.949219 774.753906 573.496094 776.253906 C 573.039062 777.753906 572.511719 779.230469 571.910156 780.679688 C 571.3125 782.128906 570.640625 783.546875 569.902344 784.929688 C 569.160156 786.3125 568.355469 787.65625 567.484375 788.960938 C 566.613281 790.265625 565.679688 791.523438 564.683594 792.738281 C 563.6875 793.949219 562.636719 795.113281 561.527344 796.222656 C 560.417969 797.332031 559.257812 798.382812 558.042969 799.378906 C 556.832031 800.375 555.570312 801.308594 554.265625 802.179688 C 552.964844 803.050781 551.617188 803.855469 550.234375 804.597656 C 548.851562 805.335938 547.433594 806.003906 545.984375 806.605469 C 544.535156 807.207031 543.058594 807.734375 541.558594 808.191406 C 540.058594 808.644531 538.539062 809.027344 537 809.332031 C 535.460938 809.636719 533.910156 809.867188 532.347656 810.023438 C 530.789062 810.175781 529.222656 810.253906 527.652344 810.253906 L 48.453125 810.253906 C 46.882812 810.253906 45.316406 810.175781 43.757812 810.023438 C 42.195312 809.867188 40.644531 809.636719 39.105469 809.332031 C 37.566406 809.027344 36.046875 808.644531 34.546875 808.191406 C 33.042969 807.734375 31.570312 807.207031 30.121094 806.605469 C 28.671875 806.003906 27.253906 805.335938 25.871094 804.597656 C 24.484375 803.855469 23.140625 803.050781 21.835938 802.179688 C 20.53125 801.308594 19.273438 800.375 18.0625 799.378906 C 16.847656 798.382812 15.6875 797.332031 14.578125 796.222656 C 13.46875 795.113281 12.417969 793.949219 11.421875 792.738281 C 10.425781 791.527344 9.492188 790.265625 8.621094 788.960938 C 7.75 787.65625 6.945312 786.3125 6.203125 784.929688 C 5.464844 783.546875 4.792969 782.128906 4.195312 780.679688 C 3.59375 779.230469 3.066406 777.753906 2.609375 776.253906 C 2.15625 774.753906 1.773438 773.230469 1.46875 771.695312 C 1.160156 770.15625 0.933594 768.605469 0.777344 767.042969 C 0.625 765.480469 0.546875 763.917969 0.546875 762.347656 L 0.546875 283.148438 C 0.546875 281.578125 0.625 280.011719 0.777344 278.453125 C 0.929688 276.890625 1.160156 275.339844 1.46875 273.800781 C 1.773438 272.261719 2.152344 270.742188 2.609375 269.242188 C 3.0625 267.738281 3.59375 266.261719 4.191406 264.8125 C 4.792969 263.363281 5.460938 261.949219 6.203125 260.5625 C 6.941406 259.179688 7.746094 257.835938 8.617188 256.53125 C 9.492188 255.226562 10.425781 253.96875 11.417969 252.753906 C 12.414062 251.542969 13.46875 250.378906 14.578125 249.269531 C 15.6875 248.160156 16.847656 247.109375 18.058594 246.113281 C 19.273438 245.117188 20.53125 244.183594 21.835938 243.3125 C 23.140625 242.441406 24.484375 241.636719 25.867188 240.894531 C 27.253906 240.15625 28.667969 239.484375 30.117188 238.886719 C 31.566406 238.285156 33.042969 237.757812 34.546875 237.300781 C 36.046875 236.84375 37.566406 236.464844 39.105469 236.160156 C 40.644531 235.851562 42.195312 235.621094 43.757812 235.46875 C 45.316406 235.316406 46.882812 235.238281 48.453125 235.238281 Z M 48.453125 235.238281 " fill-opacity="1" fill-rule="nonzero"/></g><path fill="#ffffff" d="M 414.144531 417.625 L 318.335938 417.625 L 318.335938 678.480469 L 257.320312 678.480469 L 257.320312 417.625 L 161.96875 417.625 L 161.96875 367.023438 L 414.144531 367.023438 Z M 414.144531 417.625 " fill-opacity="1" fill-rule="nonzero"/></svg>