<svg xmlns="http://www.w3.org/2000/svg" xmlns:xlink="http://www.w3.org/1999/xlink" width="1534" zoomAndPan="magnify" viewBox="0 0 1150.5 286.499991" height="382" preserveAspectRatio="xMidYMid meet" version="1.0"><defs><g/><clipPath id="979dc49475"><rect x="0" width="152" y="0" height="286"/></clipPath><clipPath id="a6f6b9299d"><path d="M 0.59375 62 L 103 62 L 103 180 L 0.59375 180 Z M 0.59375 62 " clip-rule="nonzero"/></clipPath><clipPath id="8f2827defa"><rect x="0" width="601" y="0" height="233"/></clipPath><clipPath id="3add289c9b"><path d="M 0.863281 21 L 128 21 L 128 286 L 0.863281 286 Z M 0.863281 21 " clip-rule="nonzero"/></clipPath><clipPath id="09d240f665"><rect x="0" width="374" y="0" height="286"/></clipPath><clipPath id="33a8f84680"><rect x="0" width="330" y="0" height="43"/></clipPath></defs><g transform="matrix(1, 0, 0, 1, 35, 0)"><g clip-path="url(#979dc49475)"><g fill="#004ec3" fill-opacity="1"><g transform="translate(0.65686, 223.385763)"><g><path d="M 145.046875 -133.140625 L 106.703125 -133.140625 L 78.359375 0 L 26.90625 0 L 55.25 -133.140625 L 17.390625 -133.140625 L 21.671875 -151.234375 L 149.09375 -151.234375 Z M 145.046875 -133.140625 "/></g></g></g></g></g><g transform="matrix(1, 0, 0, 1, 136, 43)"><g clip-path="url(#8f2827defa)"><g clip-path="url(#a6f6b9299d)"><g fill="#004ec3" fill-opacity="1"><g transform="translate(0.772222, 179.315902)"><g><path d="M 24.796875 -116.640625 L 102.125 -116.640625 L 99.1875 -102.6875 L 61.71875 -102.6875 L 54 -67.234375 L 85.421875 -67.234375 L 82.46875 -53.453125 L 51.0625 -53.453125 L 42.609375 -14.140625 L 80.09375 -14.140625 L 77.328125 0 L 0 0 Z M 24.796875 -116.640625 "/></g></g></g></g><g fill="#004ec3" fill-opacity="1"><g transform="translate(90.9555, 179.315902)"><g><path d="M 103.59375 -9.921875 C 100.53125 -8.453125 97.375 -7.007812 94.125 -5.59375 C 90.882812 -4.1875 87.425781 -2.960938 83.75 -1.921875 C 80.082031 -0.890625 76.070312 -0.0664062 71.71875 0.546875 C 67.375 1.160156 62.632812 1.46875 57.5 1.46875 C 41.082031 1.46875 28.4375 -2.203125 19.5625 -9.546875 C 10.6875 -16.898438 6.25 -29.148438 6.25 -46.296875 C 6.25 -56.210938 7.78125 -65.546875 10.84375 -74.296875 C 13.90625 -83.054688 18.4375 -90.710938 24.4375 -97.265625 C 30.4375 -103.816406 37.84375 -108.988281 46.65625 -112.78125 C 55.46875 -116.582031 65.570312 -118.484375 76.96875 -118.484375 C 82.351562 -118.484375 87.28125 -118.113281 91.75 -117.375 C 96.21875 -116.644531 100.257812 -115.695312 103.875 -114.53125 C 107.488281 -113.363281 110.734375 -112.109375 113.609375 -110.765625 C 116.484375 -109.421875 119.085938 -108.132812 121.421875 -106.90625 L 114.796875 -72.734375 L 81.734375 -72.734375 C 81.859375 -73.960938 82.007812 -75.554688 82.1875 -77.515625 C 82.375 -79.472656 82.53125 -81.460938 82.65625 -83.484375 C 82.78125 -85.503906 82.898438 -87.492188 83.015625 -89.453125 C 83.140625 -91.410156 83.203125 -93.066406 83.203125 -94.421875 C 83.203125 -95.398438 83.140625 -96.53125 83.015625 -97.8125 C 82.898438 -99.101562 82.597656 -100.359375 82.109375 -101.578125 C 81.617188 -102.804688 80.851562 -103.816406 79.8125 -104.609375 C 78.769531 -105.398438 77.390625 -105.796875 75.671875 -105.796875 C 72.492188 -105.796875 69.585938 -104.476562 66.953125 -101.84375 C 64.316406 -99.21875 61.957031 -95.726562 59.875 -91.375 C 57.800781 -87.03125 55.96875 -82.101562 54.375 -76.59375 C 52.78125 -71.082031 51.460938 -65.476562 50.421875 -59.78125 C 49.378906 -54.09375 48.582031 -48.492188 48.03125 -42.984375 C 47.476562 -37.472656 47.203125 -32.632812 47.203125 -28.46875 C 47.203125 -27.25 47.265625 -25.71875 47.390625 -23.875 C 47.515625 -22.039062 47.878906 -20.265625 48.484375 -18.546875 C 49.097656 -16.835938 50.046875 -15.367188 51.328125 -14.140625 C 52.617188 -12.921875 54.367188 -12.3125 56.578125 -12.3125 C 60.367188 -12.3125 64.039062 -14.664062 67.59375 -19.375 C 71.144531 -24.09375 74.269531 -32.515625 76.96875 -44.640625 L 110.953125 -44.640625 Z M 103.59375 -9.921875 "/></g></g></g><g fill="#004ec3" fill-opacity="1"><g transform="translate(208.322466, 179.315902)"><g><path d="M 101.953125 0 L 62.265625 0 L 73.296875 -51.984375 L 50.703125 -51.984375 L 39.671875 0 L 0 0 L 24.796875 -116.640625 L 64.65625 -116.640625 L 53.828125 -65.9375 L 76.234375 -65.9375 L 87.0625 -116.640625 L 127.109375 -116.640625 Z M 101.953125 0 "/></g></g></g><g fill="#004ec3" fill-opacity="1"><g transform="translate(330.648618, 179.315902)"><g><path d="M 39.671875 0 L 0 0 L 24.796875 -116.640625 L 64.65625 -116.640625 Z M 39.671875 0 "/></g></g></g><g fill="#004ec3" fill-opacity="1"><g transform="translate(390.525955, 179.315902)"><g><path d="M 24.796875 -116.640625 L 102.125 -116.640625 L 99.1875 -102.6875 L 61.53125 -102.6875 L 54.375 -69.0625 L 85.78125 -69.0625 L 82.84375 -54.921875 L 51.4375 -54.921875 L 39.671875 0 L 0 0 Z M 24.796875 -116.640625 "/></g></g></g><g fill="#004ec3" fill-opacity="1"><g transform="translate(480.709339, 179.315902)"><g><path d="M 71.453125 -44.078125 L 62.09375 0 L 22.21875 0 L 32.328125 -47.203125 L 14.328125 -116.640625 L 58.40625 -116.640625 L 70.90625 -70.53125 L 98.453125 -116.640625 L 118.296875 -116.640625 Z M 71.453125 -44.078125 "/></g></g></g></g></g><path stroke-linecap="butt" transform="matrix(0.748693, 0, 0, 0.748693, 197.651737, 70.892667)" fill="none" stroke-linejoin="miter" d="M 0.000809761 5.000782 L 740.702743 5.000782 " stroke="#323e47" stroke-width="10" stroke-opacity="1" stroke-miterlimit="4"/><path stroke-linecap="butt" transform="matrix(0.748693, -0.000000000000000186, 0.000000000000000186, 0.748693, 59.386863, 249.160225)" fill="none" stroke-linejoin="miter" d="M -0.000193164 2.999926 L 369.351637 2.999926 " stroke="#323e47" stroke-width="6" stroke-opacity="1" stroke-miterlimit="4"/><g transform="matrix(1, 0, 0, 1, 739, 0)"><g clip-path="url(#09d240f665)"><g clip-path="url(#3add289c9b)"><g fill="#383640" fill-opacity="1"><g transform="translate(0.936966, 224.21303)"><g><path d="M 124.203125 -192.4375 C 125.296875 -187.144531 125.882812 -181.738281 125.96875 -176.21875 C 126.21875 -166.375 126.117188 -156.535156 125.671875 -146.703125 C 125.222656 -136.867188 124.550781 -127.03125 123.65625 -117.1875 C 122.96875 -108.695312 122.296875 -100.203125 121.640625 -91.703125 C 121.109375 -84.710938 120.582031 -77.703125 120.0625 -70.671875 C 119.445312 -62.703125 118.773438 -54.691406 118.046875 -46.640625 C 117.316406 -38.671875 116.601562 -30.664062 115.90625 -22.625 C 115.175781 -13.3125 114.507812 -4 113.90625 5.3125 C 113.613281 11.5625 113.285156 17.757812 112.921875 23.90625 C 112.597656 30.894531 112.253906 37.925781 111.890625 45 C 110.785156 62.351562 110.378906 79.691406 110.671875 97.015625 C 110.671875 98.109375 110.585938 99.144531 110.421875 100.125 C 110.140625 101.175781 109.410156 101.804688 108.234375 102.015625 C 104.648438 102.703125 102.632812 101.359375 102.1875 97.984375 C 101.945312 95.378906 101.828125 92.78125 101.828125 90.1875 C 101.828125 85.257812 101.828125 80.335938 101.828125 75.421875 C 101.617188 62.210938 101.578125 48.941406 101.703125 35.609375 C 101.953125 23.171875 102.5625 10.734375 103.53125 -1.703125 C 104.632812 -16.828125 105.816406 -31.929688 107.078125 -47.015625 C 107.847656 -56.242188 108.597656 -65.410156 109.328125 -74.515625 C 111.117188 -97.316406 112.867188 -120.078125 114.578125 -142.796875 C 115.460938 -155.523438 115.644531 -168.269531 115.125 -181.03125 C 114.832031 -188.632812 113.566406 -192.566406 111.328125 -192.828125 C 109.097656 -193.097656 106.171875 -190.597656 102.546875 -185.328125 C 98.929688 -180.066406 94.890625 -172.851562 90.421875 -163.6875 C 85.953125 -154.519531 81.316406 -144.273438 76.515625 -132.953125 C 71.722656 -121.628906 67.03125 -110.15625 62.4375 -98.53125 C 57.84375 -86.90625 53.59375 -75.929688 49.6875 -65.609375 C 45.789062 -55.285156 42.550781 -46.523438 39.96875 -39.328125 C 37.382812 -32.128906 35.644531 -27.3125 34.75 -24.875 C 34.46875 -24.1875 34.328125 -23.800781 34.328125 -23.71875 C 29.691406 -11.363281 24.914062 0.929688 20 13.171875 C 18.570312 16.503906 16.96875 19.773438 15.1875 22.984375 C 14.820312 23.597656 14.414062 24.269531 13.96875 25 C 13.15625 26.789062 11.851562 27.988281 10.0625 28.59375 C 7.457031 29.320312 5.195312 29.3125 3.28125 28.5625 C 1.375 27.8125 0.363281 25.8125 0.25 22.5625 C 0.0820312 15.53125 0.140625 8.519531 0.421875 1.53125 C 0.585938 -2.050781 0.710938 -5.671875 0.796875 -9.328125 C 1.523438 -28.753906 2.335938 -48.207031 3.234375 -67.6875 C 3.921875 -80.726562 4.671875 -93.734375 5.484375 -106.703125 C 6.140625 -116.742188 6.769531 -126.765625 7.375 -136.765625 C 7.539062 -140.785156 7.804688 -144.769531 8.171875 -148.71875 C 8.898438 -157.132812 9.265625 -165.585938 9.265625 -174.078125 C 9.265625 -175.140625 9.304688 -176.21875 9.390625 -177.3125 C 9.671875 -180.070312 11.195312 -181.453125 13.96875 -181.453125 C 16.726562 -181.453125 18.25 -180.007812 18.53125 -177.125 C 18.863281 -173.226562 18.96875 -169.265625 18.84375 -165.234375 C 18.71875 -161.210938 18.515625 -157.191406 18.234375 -153.171875 C 18.234375 -152.878906 18.234375 -152.59375 18.234375 -152.3125 C 17.867188 -147.519531 17.519531 -142.660156 17.1875 -137.734375 C 16.75 -132.535156 16.34375 -127.296875 15.96875 -122.015625 C 14.632812 -97.421875 13.335938 -72.828125 12.078125 -48.234375 C 11.179688 -31.691406 10.367188 -15.144531 9.640625 1.40625 C 9.472656 6.5625 9.96875 9.078125 11.125 8.953125 C 12.28125 8.835938 13.800781 7.007812 15.6875 3.46875 C 17.582031 -0.0625 19.578125 -4.378906 21.671875 -9.484375 C 23.765625 -14.585938 25.707031 -19.460938 27.5 -24.109375 C 29.289062 -28.765625 30.59375 -32.253906 31.40625 -34.578125 C 31.644531 -35.265625 31.828125 -35.75 31.953125 -36.03125 C 34.796875 -43.800781 38.085938 -53.273438 41.828125 -64.453125 C 45.691406 -75.828125 49.929688 -87.925781 54.546875 -100.75 C 59.160156 -113.582031 64.054688 -126.21875 69.234375 -138.65625 C 74.421875 -151.09375 79.753906 -162.289062 85.234375 -172.25 C 90.722656 -182.207031 96.335938 -190.015625 102.078125 -195.671875 C 103.773438 -197.378906 105.601562 -198.800781 107.5625 -199.9375 C 111.414062 -202.007812 114.925781 -202.351562 118.09375 -200.96875 C 121.269531 -199.582031 123.304688 -196.738281 124.203125 -192.4375 Z M 124.203125 -192.4375 "/></g></g></g></g><g fill="#383640" fill-opacity="1"><g transform="translate(130.860495, 224.21303)"><g><path d="M 68.984375 -31.34375 C 67.867188 -27.925781 65.65625 -24.007812 62.34375 -19.59375 C 59.03125 -15.1875 54.894531 -12.351562 49.9375 -11.09375 C 44.976562 -9.832031 40.6875 -10.003906 37.0625 -11.609375 C 33.445312 -13.222656 31.457031 -17.523438 31.09375 -24.515625 C 26.988281 -16.546875 23.078125 -11.441406 19.359375 -9.203125 C 15.640625 -6.972656 11.769531 -6.117188 7.75 -6.640625 C 3.195312 -7.378906 0.117188 -9.148438 -1.484375 -11.953125 C -3.097656 -14.753906 -3.640625 -17.992188 -3.109375 -21.671875 C -2.578125 -25.347656 -1.457031 -28.875 0.25 -32.25 C 1.582031 -34.769531 3.4375 -37.109375 5.8125 -39.265625 C 8.195312 -41.421875 10.691406 -43.109375 13.296875 -44.328125 C 16.503906 -45.953125 19.734375 -46.722656 22.984375 -46.640625 C 26.234375 -46.554688 29.707031 -45.476562 33.40625 -43.40625 C 33.488281 -43.332031 33.53125 -43.414062 33.53125 -43.65625 C 33.53125 -44.019531 33.617188 -44.476562 33.796875 -45.03125 C 33.984375 -45.582031 34.300781 -46.019531 34.75 -46.34375 C 35.96875 -47.238281 37.410156 -47.6875 39.078125 -47.6875 C 40.742188 -47.6875 42.023438 -46.851562 42.921875 -45.1875 C 43.085938 -43.03125 42.863281 -40.285156 42.25 -36.953125 C 40.914062 -29.628906 40.914062 -24.363281 42.25 -21.15625 C 43.59375 -17.945312 45.960938 -16.453125 49.359375 -16.671875 C 52.753906 -16.898438 57.15625 -20.253906 62.5625 -26.734375 C 67.96875 -33.222656 70.109375 -34.757812 68.984375 -31.34375 Z M 8.96875 -14.140625 C 10.832031 -12.804688 12.972656 -12.988281 15.390625 -14.6875 C 17.816406 -16.394531 20.144531 -18.8125 22.375 -21.9375 C 24.613281 -25.070312 26.492188 -28.203125 28.015625 -31.328125 C 29.535156 -34.460938 30.378906 -36.785156 30.546875 -38.296875 C 25.992188 -40.734375 22.09375 -41.148438 18.84375 -39.546875 C 15.59375 -37.941406 13 -35.316406 11.0625 -31.671875 C 9.132812 -28.035156 7.988281 -24.5 7.625 -21.0625 C 7.257812 -17.632812 7.707031 -15.328125 8.96875 -14.140625 Z M 8.96875 -14.140625 "/></g></g></g><g fill="#383640" fill-opacity="1"><g transform="translate(195.486942, 224.21303)"><g><path d="M 44.75 -29.328125 C 46.988281 -31.484375 47.953125 -32.019531 47.640625 -30.9375 C 47.335938 -29.863281 46.109375 -27.914062 43.953125 -25.09375 C 41.804688 -22.269531 39.125 -19.207031 35.90625 -15.90625 C 32.695312 -12.613281 29.300781 -9.757812 25.71875 -7.34375 C 22.144531 -4.925781 18.753906 -3.617188 15.546875 -3.421875 C 11.609375 -3.421875 8.445312 -4.585938 6.0625 -6.921875 C 3.6875 -9.253906 1.988281 -12.34375 0.96875 -16.1875 C -0.0390625 -20.03125 -0.46875 -24.1875 -0.3125 -28.65625 C -0.101562 -33.65625 0.0820312 -38.65625 0.25 -43.65625 C 0.320312 -46.175781 0.398438 -48.632812 0.484375 -51.03125 C 0.691406 -55.0625 0.835938 -59.085938 0.921875 -63.109375 C 0.992188 -64.367188 0.785156 -65.425781 0.296875 -66.28125 C -0.179688 -67.132812 -1.050781 -67.601562 -2.3125 -67.6875 C -3.738281 -67.757812 -5.53125 -67.796875 -7.6875 -67.796875 C -9.550781 -67.796875 -11.15625 -67.796875 -12.5 -67.796875 C -14.363281 -68.003906 -15.609375 -68.503906 -16.234375 -69.296875 C -16.867188 -70.085938 -16.375 -70.890625 -14.75 -71.703125 C -13.613281 -72.148438 -12.242188 -72.394531 -10.640625 -72.4375 C -9.035156 -72.476562 -7.460938 -72.457031 -5.921875 -72.375 C -4.941406 -72.289062 -4.085938 -72.25 -3.359375 -72.25 C -0.953125 -72.25 0.507812 -72.625 1.03125 -73.375 C 1.5625 -74.132812 1.890625 -75.628906 2.015625 -77.859375 C 2.171875 -80.222656 2.289062 -82.601562 2.375 -85 C 2.457031 -86.257812 2.5625 -87.519531 2.6875 -88.78125 C 2.6875 -90.644531 3.171875 -92.332031 4.140625 -93.84375 C 5.203125 -95.257812 6.546875 -95.804688 8.171875 -95.484375 C 9.585938 -95.117188 10.378906 -94.222656 10.546875 -92.796875 C 10.671875 -90.441406 10.734375 -88.066406 10.734375 -85.671875 C 10.816406 -84.328125 10.816406 -82.984375 10.734375 -81.640625 C 10.734375 -80.222656 10.773438 -78.738281 10.859375 -77.1875 C 10.773438 -75.070312 11.015625 -73.738281 11.578125 -73.1875 C 12.148438 -72.644531 13.554688 -72.375 15.796875 -72.375 C 19.453125 -72.375 23.066406 -72.375 26.640625 -72.375 C 28.265625 -72.375 33.101562 -72.484375 41.15625 -72.703125 C 49.207031 -72.929688 53.546875 -72.28125 54.171875 -70.75 C 54.804688 -69.226562 49.71875 -68.347656 38.90625 -68.109375 C 32.351562 -67.742188 27.289062 -67.5625 23.71875 -67.5625 C 21.320312 -67.644531 19.164062 -67.6875 17.25 -67.6875 C 14.039062 -67.6875 12.0625 -67.125 11.3125 -66 C 10.5625 -64.882812 10.222656 -62.640625 10.296875 -59.265625 C 10.222656 -56.378906 10.082031 -52.882812 9.875 -48.78125 C 9.34375 -40.363281 9.078125 -31.785156 9.078125 -23.046875 C 9.285156 -17.035156 10.363281 -13.132812 12.3125 -11.34375 C 14.269531 -9.550781 16.8125 -9.210938 19.9375 -10.328125 C 23.070312 -11.453125 26.457031 -13.445312 30.09375 -16.3125 C 33.726562 -19.175781 37.332031 -22.253906 40.90625 -25.546875 C 41.6875 -26.566406 42.625 -27.519531 43.71875 -28.40625 C 44.082031 -28.738281 44.425781 -29.046875 44.75 -29.328125 Z M 44.75 -29.328125 "/></g></g></g><g fill="#383640" fill-opacity="1"><g transform="translate(239.445105, 224.21303)"><g><path d="M 31.640625 -24.75 C 30.378906 -22.15625 28.234375 -19.269531 25.203125 -16.09375 C 22.179688 -12.925781 18.75 -10.914062 14.90625 -10.0625 C 11.0625 -9.207031 7.394531 -10.53125 3.90625 -14.03125 C 2.5625 -15.570312 1.570312 -17.347656 0.9375 -19.359375 C 0.3125 -21.367188 0.0820312 -23.347656 0.25 -25.296875 C 0.25 -25.828125 0.25 -26.5 0.25 -27.3125 C 0.25 -29.382812 0.335938 -31.78125 0.515625 -34.5 C 0.703125 -37.226562 1.109375 -39.691406 1.734375 -41.890625 C 2.367188 -44.085938 3.351562 -45.410156 4.6875 -45.859375 C 8.550781 -46.828125 10.644531 -45.484375 10.96875 -41.828125 C 10.96875 -40.648438 10.929688 -39.472656 10.859375 -38.296875 C 10.773438 -37.679688 10.734375 -37.109375 10.734375 -36.578125 C 10.648438 -34.878906 10.566406 -33.175781 10.484375 -31.46875 C 10.484375 -30.125 10.421875 -28.78125 10.296875 -27.4375 C 10.222656 -21.539062 11.546875 -18.035156 14.265625 -16.921875 C 16.992188 -15.804688 20.101562 -16.992188 23.59375 -20.484375 C 27.09375 -23.984375 29.378906 -26.890625 30.453125 -29.203125 C 31.535156 -31.523438 32.316406 -32.015625 32.796875 -30.671875 C 33.285156 -29.328125 32.898438 -27.351562 31.640625 -24.75 Z M 10.1875 -58.40625 C 9.65625 -57.96875 9.015625 -57.6875 8.265625 -57.5625 C 7.515625 -57.4375 6.851562 -57.5 6.28125 -57.75 C 5.832031 -58.113281 5.546875 -58.585938 5.421875 -59.171875 C 5.304688 -59.765625 5.25 -60.46875 5.25 -61.28125 C 5.25 -61.4375 5.285156 -61.597656 5.359375 -61.765625 C 5.441406 -62.492188 5.628906 -63.226562 5.921875 -63.96875 C 6.734375 -65.914062 8.414062 -66.804688 10.96875 -66.640625 C 11.863281 -66.523438 12.566406 -66.160156 13.078125 -65.546875 C 13.585938 -64.929688 13.703125 -64.21875 13.421875 -63.40625 C 12.804688 -61.414062 11.726562 -59.75 10.1875 -58.40625 Z M 10.1875 -58.40625 "/></g></g></g><g fill="#383640" fill-opacity="1"><g transform="translate(269.380568, 224.21303)"><g><path d="M 46.828125 -33.359375 C 47.441406 -33.960938 47.765625 -33.21875 47.796875 -31.125 C 47.835938 -29.03125 45.9375 -26.101562 42.09375 -22.34375 C 38.257812 -18.582031 34.289062 -16.804688 30.1875 -17.015625 C 29.289062 -17.097656 28.523438 -17.023438 27.890625 -16.796875 C 27.265625 -16.578125 26.726562 -16.0625 26.28125 -15.25 C 25.832031 -14.507812 25.300781 -13.835938 24.6875 -13.234375 C 24.6875 -13.234375 24.648438 -13.191406 24.578125 -13.109375 C 22.054688 -10.421875 19.097656 -8.648438 15.703125 -7.796875 C 12.304688 -6.953125 9.082031 -7.21875 6.03125 -8.59375 C 2.988281 -9.976562 0.796875 -12.601562 -0.546875 -16.46875 C -1.523438 -19.957031 -1.609375 -23.429688 -0.796875 -26.890625 C -0.0976562 -29.941406 1.019531 -32.804688 2.5625 -35.484375 C 4.425781 -39.066406 6.851562 -41.597656 9.84375 -43.078125 C 12.832031 -44.554688 16.21875 -45.378906 20 -45.546875 C 25.601562 -45.828125 29.140625 -43.1875 30.609375 -37.625 C 31.503906 -34.40625 31.726562 -31.148438 31.28125 -27.859375 C 31.15625 -27.128906 31.015625 -26.359375 30.859375 -25.546875 C 30.691406 -25.015625 30.546875 -24.488281 30.421875 -23.96875 C 30.265625 -22.175781 31.039062 -21.363281 32.75 -21.53125 C 37.457031 -22.34375 42.148438 -26.285156 46.828125 -33.359375 Z M 13.65625 -12.5625 C 16.539062 -13.90625 18.550781 -16.179688 19.6875 -19.390625 C 14.894531 -22.441406 11.6875 -26.832031 10.0625 -32.5625 C 8.5625 -29.875 7.644531 -26.738281 7.3125 -23.15625 C 6.988281 -19.582031 7.34375 -16.628906 8.375 -14.296875 C 9.414062 -11.960938 11.175781 -11.382812 13.65625 -12.5625 Z M 21.890625 -25.734375 C 22.660156 -26.867188 23.113281 -28.269531 23.25 -29.9375 C 23.394531 -31.601562 23.316406 -33.257812 23.015625 -34.90625 C 22.710938 -36.550781 22.285156 -37.84375 21.734375 -38.78125 C 21.191406 -39.71875 20.613281 -40.003906 20 -39.640625 C 18.90625 -38.660156 18.296875 -37.253906 18.171875 -35.421875 C 18.046875 -33.597656 18.316406 -31.769531 18.984375 -29.9375 C 19.660156 -28.101562 20.628906 -26.703125 21.890625 -25.734375 Z M 21.890625 -25.734375 "/></g></g></g><g fill="#383640" fill-opacity="1"><g transform="translate(314.801971, 224.21303)"><g><path d="M 50.421875 -23.46875 C 53.554688 -28.425781 55.414062 -31.578125 56 -32.921875 C 56.59375 -34.265625 57.0625 -34.203125 57.40625 -32.734375 C 57.75 -31.273438 56.742188 -27.972656 54.390625 -22.828125 C 52.035156 -17.691406 49.109375 -13.726562 45.609375 -10.9375 C 42.109375 -8.15625 38.84375 -7.128906 35.8125 -7.859375 C 32.789062 -8.597656 30.628906 -10.703125 29.328125 -14.171875 C 28.023438 -17.648438 27.640625 -22.03125 28.171875 -27.3125 C 28.171875 -27.394531 28.210938 -27.617188 28.296875 -27.984375 C 28.367188 -28.878906 28.515625 -30.203125 28.734375 -31.953125 C 28.960938 -33.703125 29.128906 -35.507812 29.234375 -37.375 C 29.335938 -39.25 29.273438 -40.796875 29.046875 -42.015625 C 28.828125 -43.234375 28.269531 -43.660156 27.375 -43.296875 C 25.21875 -42.109375 23.113281 -39.796875 21.0625 -36.359375 C 19.007812 -32.929688 17.148438 -29.335938 15.484375 -25.578125 C 13.816406 -21.816406 12.640625 -18.78125 11.953125 -16.46875 C 11.671875 -15.726562 11.40625 -14.953125 11.15625 -14.140625 C 10.789062 -13.085938 10.382812 -12.03125 9.9375 -10.96875 C 8.757812 -7.925781 6.707031 -6.75 3.78125 -7.4375 C 2.15625 -7.800781 1.203125 -8.796875 0.921875 -10.421875 C 0.835938 -11.679688 0.796875 -12.882812 0.796875 -14.03125 C 0.796875 -14.757812 0.753906 -15.425781 0.671875 -16.03125 C 0.503906 -25.0625 0.28125 -34.148438 0 -43.296875 C 0.0820312 -44.347656 0.550781 -45.078125 1.40625 -45.484375 C 2.257812 -45.890625 3.273438 -46.09375 4.453125 -46.09375 C 5.347656 -46.09375 6.191406 -45.847656 6.984375 -45.359375 C 7.773438 -44.878906 8.269531 -43.863281 8.46875 -42.3125 C 8.550781 -41.78125 8.59375 -41.253906 8.59375 -40.734375 C 8.675781 -40.441406 8.71875 -40.175781 8.71875 -39.9375 C 8.882812 -38.675781 8.96875 -37.597656 8.96875 -36.703125 C 8.96875 -35.359375 9.054688 -34.441406 9.234375 -33.953125 C 9.421875 -33.472656 9.804688 -33.492188 10.390625 -34.015625 C 10.984375 -34.546875 11.953125 -35.804688 13.296875 -37.796875 C 15.609375 -41.378906 18.472656 -44.410156 21.890625 -46.890625 C 25.015625 -49.128906 28.445312 -50.0625 32.1875 -49.6875 C 35.40625 -49.363281 37.5625 -47.679688 38.65625 -44.640625 C 39.101562 -43.085938 39.328125 -41.53125 39.328125 -39.96875 C 39.328125 -38.40625 39.226562 -36.832031 39.03125 -35.25 C 38.945312 -33.613281 38.820312 -31.945312 38.65625 -30.25 C 38.53125 -29.71875 38.429688 -29.1875 38.359375 -28.65625 C 37.828125 -22.84375 38.007812 -18.953125 38.90625 -16.984375 C 39.800781 -15.015625 41.160156 -14.363281 42.984375 -15.03125 C 44.816406 -15.695312 47.296875 -18.507812 50.421875 -23.46875 Z M 50.421875 -23.46875 "/></g></g></g></g></g><g transform="matrix(1, 0, 0, 1, 348, 230)"><g clip-path="url(#33a8f84680)"><g fill="#383640" fill-opacity="1"><g transform="translate(1.035751, 31.881198)"><g><path d="M 19.359375 -15.5625 C 19.140625 -14.320312 18.628906 -13.289062 17.828125 -12.46875 C 17.035156 -11.65625 16.078125 -11.085938 14.953125 -10.765625 C 15.953125 -10.546875 16.738281 -10.054688 17.3125 -9.296875 C 17.894531 -8.546875 18.1875 -7.660156 18.1875 -6.640625 C 18.1875 -6.316406 18.160156 -6.007812 18.109375 -5.71875 C 17.804688 -3.957031 16.945312 -2.5625 15.53125 -1.53125 C 14.113281 -0.507812 12.304688 0 10.109375 0 L 0.328125 0 L 4.046875 -21 L 13.5 -21 C 15.394531 -21 16.859375 -20.609375 17.890625 -19.828125 C 18.929688 -19.054688 19.453125 -17.984375 19.453125 -16.609375 C 19.453125 -16.265625 19.421875 -15.914062 19.359375 -15.5625 Z M 10.984375 -12.484375 C 11.835938 -12.484375 12.523438 -12.671875 13.046875 -13.046875 C 13.566406 -13.421875 13.882812 -13.96875 14 -14.6875 C 14.019531 -14.8125 14.03125 -14.972656 14.03125 -15.171875 C 14.03125 -15.742188 13.835938 -16.1875 13.453125 -16.5 C 13.078125 -16.8125 12.523438 -16.96875 11.796875 -16.96875 L 8.4375 -16.96875 L 7.65625 -12.484375 Z M 13.015625 -6.40625 C 13.054688 -6.644531 13.078125 -6.820312 13.078125 -6.9375 C 13.078125 -7.519531 12.863281 -7.972656 12.4375 -8.296875 C 12.019531 -8.628906 11.445312 -8.796875 10.71875 -8.796875 L 7 -8.796875 L 6.15625 -4.0625 L 9.9375 -4.0625 C 10.8125 -4.0625 11.507812 -4.257812 12.03125 -4.65625 C 12.550781 -5.0625 12.878906 -5.644531 13.015625 -6.40625 Z M 13.015625 -6.40625 "/></g></g></g><g fill="#383640" fill-opacity="1"><g transform="translate(20.758427, 31.881198)"><g><path d="M 19.75 -16.703125 L 16.8125 0 L 11.703125 0 L 12.09375 -2.28125 C 11.425781 -1.539062 10.617188 -0.945312 9.671875 -0.5 C 8.734375 -0.0507812 7.722656 0.171875 6.640625 0.171875 C 4.960938 0.171875 3.644531 -0.296875 2.6875 -1.234375 C 1.726562 -2.179688 1.25 -3.503906 1.25 -5.203125 C 1.25 -5.835938 1.300781 -6.414062 1.40625 -6.9375 L 3.140625 -16.703125 L 8.234375 -16.703125 L 6.640625 -7.625 C 6.578125 -7.3125 6.546875 -7.003906 6.546875 -6.703125 C 6.546875 -5.867188 6.78125 -5.222656 7.25 -4.765625 C 7.71875 -4.316406 8.375 -4.09375 9.21875 -4.09375 C 10.175781 -4.09375 10.988281 -4.378906 11.65625 -4.953125 C 12.320312 -5.523438 12.765625 -6.335938 12.984375 -7.390625 L 14.625 -16.703125 Z M 19.75 -16.703125 "/></g></g></g><g fill="#383640" fill-opacity="1"><g transform="translate(40.930031, 31.881198)"><g><path d="M 6.15625 -18.4375 C 5.363281 -18.4375 4.734375 -18.648438 4.265625 -19.078125 C 3.796875 -19.503906 3.5625 -20.046875 3.5625 -20.703125 C 3.5625 -21.597656 3.910156 -22.363281 4.609375 -23 C 5.304688 -23.644531 6.15625 -23.96875 7.15625 -23.96875 C 7.945312 -23.96875 8.570312 -23.753906 9.03125 -23.328125 C 9.488281 -22.898438 9.71875 -22.34375 9.71875 -21.65625 C 9.71875 -20.78125 9.367188 -20.023438 8.671875 -19.390625 C 7.972656 -18.753906 7.132812 -18.4375 6.15625 -18.4375 Z M 8.375 -16.703125 L 5.453125 0 L 0.328125 0 L 3.265625 -16.703125 Z M 8.375 -16.703125 "/></g></g></g><g fill="#383640" fill-opacity="1"><g transform="translate(49.758848, 31.881198)"><g><path d="M 9.359375 -22.140625 L 5.453125 0 L 0.328125 0 L 4.25 -22.140625 Z M 9.359375 -22.140625 "/></g></g></g><g fill="#383640" fill-opacity="1"><g transform="translate(58.587664, 31.881198)"><g><path d="M 7.265625 -5.75 C 7.242188 -5.644531 7.234375 -5.515625 7.234375 -5.359375 C 7.234375 -4.992188 7.335938 -4.734375 7.546875 -4.578125 C 7.765625 -4.421875 8.113281 -4.34375 8.59375 -4.34375 L 10.40625 -4.34375 L 9.640625 0 L 7.03125 0 C 3.675781 0 2 -1.40625 2 -4.21875 C 2 -4.632812 2.050781 -5.164062 2.15625 -5.8125 L 3.34375 -12.453125 L 1.3125 -12.453125 L 2.0625 -16.703125 L 4.09375 -16.703125 L 4.8125 -20.765625 L 9.9375 -20.765625 L 9.21875 -16.703125 L 12.5625 -16.703125 L 11.8125 -12.453125 L 8.46875 -12.453125 Z M 7.265625 -5.75 "/></g></g></g><g fill="#383640" fill-opacity="1"><g transform="translate(70.738515, 31.881198)"><g/></g></g><g fill="#383640" fill-opacity="1"><g transform="translate(77.651927, 31.881198)"><g><path d="M 12 -19.09375 C 11.019531 -19.15625 10.304688 -19.015625 9.859375 -18.671875 C 9.410156 -18.328125 9.109375 -17.71875 8.953125 -16.84375 L 8.921875 -16.703125 L 11.671875 -16.703125 L 10.921875 -12.453125 L 8.171875 -12.453125 L 5.984375 0 L 0.84375 0 L 3.015625 -12.453125 L 1.171875 -12.453125 L 1.921875 -16.703125 L 3.765625 -16.703125 L 3.859375 -17.171875 C 4.234375 -19.222656 5.101562 -20.78125 6.46875 -21.84375 C 7.84375 -22.914062 9.664062 -23.453125 11.9375 -23.453125 C 12.300781 -23.453125 12.570312 -23.441406 12.75 -23.421875 Z M 12 -19.09375 "/></g></g></g><g fill="#383640" fill-opacity="1"><g transform="translate(88.426083, 31.881198)"><g><path d="M 7.953125 0.234375 C 6.523438 0.234375 5.25 -0.0507812 4.125 -0.625 C 3.007812 -1.207031 2.144531 -2.023438 1.53125 -3.078125 C 0.925781 -4.140625 0.625 -5.367188 0.625 -6.765625 C 0.625 -8.660156 1.070312 -10.382812 1.96875 -11.9375 C 2.875 -13.488281 4.113281 -14.707031 5.6875 -15.59375 C 7.257812 -16.488281 9.015625 -16.9375 10.953125 -16.9375 C 12.390625 -16.9375 13.671875 -16.640625 14.796875 -16.046875 C 15.921875 -15.460938 16.789062 -14.640625 17.40625 -13.578125 C 18.03125 -12.523438 18.34375 -11.300781 18.34375 -9.90625 C 18.34375 -7.988281 17.890625 -6.253906 16.984375 -4.703125 C 16.078125 -3.160156 14.828125 -1.953125 13.234375 -1.078125 C 11.648438 -0.203125 9.890625 0.234375 7.953125 0.234375 Z M 8.671875 -4.15625 C 9.515625 -4.15625 10.269531 -4.410156 10.9375 -4.921875 C 11.601562 -5.429688 12.117188 -6.085938 12.484375 -6.890625 C 12.859375 -7.703125 13.046875 -8.546875 13.046875 -9.421875 C 13.046875 -10.421875 12.773438 -11.1875 12.234375 -11.71875 C 11.703125 -12.257812 11.023438 -12.53125 10.203125 -12.53125 C 9.347656 -12.53125 8.59375 -12.273438 7.9375 -11.765625 C 7.289062 -11.265625 6.785156 -10.601562 6.421875 -9.78125 C 6.066406 -8.96875 5.890625 -8.113281 5.890625 -7.21875 C 5.890625 -6.238281 6.148438 -5.484375 6.671875 -4.953125 C 7.191406 -4.421875 7.859375 -4.15625 8.671875 -4.15625 Z M 8.671875 -4.15625 "/></g></g></g><g fill="#383640" fill-opacity="1"><g transform="translate(107.490345, 31.881198)"><g><path d="M 7.84375 -13.671875 C 8.613281 -14.671875 9.503906 -15.453125 10.515625 -16.015625 C 11.523438 -16.585938 12.578125 -16.875 13.671875 -16.875 L 12.71875 -11.453125 L 11.3125 -11.453125 C 10.03125 -11.453125 9.019531 -11.175781 8.28125 -10.625 C 7.550781 -10.082031 7.066406 -9.125 6.828125 -7.75 L 5.453125 0 L 0.328125 0 L 3.265625 -16.703125 L 8.375 -16.703125 Z M 7.84375 -13.671875 "/></g></g></g><g fill="#383640" fill-opacity="1"><g transform="translate(120.29961, 31.881198)"><g/></g></g><g fill="#383640" fill-opacity="1"><g transform="translate(127.213022, 31.881198)"><g><path d="M 18.84375 -14.25 C 18.644531 -13.03125 18.175781 -11.914062 17.4375 -10.90625 C 16.707031 -9.894531 15.707031 -9.082031 14.4375 -8.46875 C 13.164062 -7.851562 11.675781 -7.546875 9.96875 -7.546875 L 6.796875 -7.546875 L 5.453125 0 L 0.328125 0 L 4.046875 -21 L 12.328125 -21 C 14.523438 -21 16.179688 -20.515625 17.296875 -19.546875 C 18.410156 -18.585938 18.96875 -17.28125 18.96875 -15.625 C 18.96875 -15.125 18.925781 -14.664062 18.84375 -14.25 Z M 10.265625 -11.546875 C 12.179688 -11.546875 13.304688 -12.445312 13.640625 -14.25 C 13.679688 -14.5625 13.703125 -14.789062 13.703125 -14.9375 C 13.703125 -15.570312 13.5 -16.0625 13.09375 -16.40625 C 12.6875 -16.757812 12.0625 -16.9375 11.21875 -16.9375 L 8.4375 -16.9375 L 7.515625 -11.546875 Z M 10.265625 -11.546875 "/></g></g></g><g fill="#383640" fill-opacity="1"><g transform="translate(145.888215, 31.881198)"><g><path d="M 10.734375 -16.9375 C 12.890625 -16.9375 14.601562 -16.351562 15.875 -15.1875 C 17.144531 -14.019531 17.78125 -12.425781 17.78125 -10.40625 C 17.78125 -9.75 17.726562 -9.160156 17.625 -8.640625 C 17.539062 -8.179688 17.421875 -7.695312 17.265625 -7.1875 L 5.6875 -7.1875 C 5.664062 -7.0625 5.65625 -6.867188 5.65625 -6.609375 C 5.65625 -5.734375 5.894531 -5.066406 6.375 -4.609375 C 6.851562 -4.148438 7.488281 -3.921875 8.28125 -3.921875 C 9.5625 -3.921875 10.539062 -4.457031 11.21875 -5.53125 L 16.671875 -5.53125 C 15.953125 -3.832031 14.78125 -2.445312 13.15625 -1.375 C 11.539062 -0.300781 9.726562 0.234375 7.71875 0.234375 C 5.5625 0.234375 3.835938 -0.359375 2.546875 -1.546875 C 1.265625 -2.742188 0.625 -4.375 0.625 -6.4375 C 0.625 -7.050781 0.6875 -7.6875 0.8125 -8.34375 C 1.101562 -10.082031 1.71875 -11.597656 2.65625 -12.890625 C 3.59375 -14.191406 4.757812 -15.191406 6.15625 -15.890625 C 7.5625 -16.585938 9.085938 -16.9375 10.734375 -16.9375 Z M 12.59375 -9.78125 C 12.632812 -10.0625 12.65625 -10.253906 12.65625 -10.359375 C 12.65625 -11.148438 12.40625 -11.757812 11.90625 -12.1875 C 11.40625 -12.625 10.75 -12.84375 9.9375 -12.84375 C 9.0625 -12.84375 8.285156 -12.578125 7.609375 -12.046875 C 6.941406 -11.515625 6.457031 -10.757812 6.15625 -9.78125 Z M 12.59375 -9.78125 "/></g></g></g><g fill="#383640" fill-opacity="1"><g transform="translate(164.323988, 31.881198)"><g><path d="M 7.84375 -13.671875 C 8.613281 -14.671875 9.503906 -15.453125 10.515625 -16.015625 C 11.523438 -16.585938 12.578125 -16.875 13.671875 -16.875 L 12.71875 -11.453125 L 11.3125 -11.453125 C 10.03125 -11.453125 9.019531 -11.175781 8.28125 -10.625 C 7.550781 -10.082031 7.066406 -9.125 6.828125 -7.75 L 5.453125 0 L 0.328125 0 L 3.265625 -16.703125 L 8.375 -16.703125 Z M 7.84375 -13.671875 "/></g></g></g><g fill="#383640" fill-opacity="1"><g transform="translate(177.133252, 31.881198)"><g><path d="M 12 -19.09375 C 11.019531 -19.15625 10.304688 -19.015625 9.859375 -18.671875 C 9.410156 -18.328125 9.109375 -17.71875 8.953125 -16.84375 L 8.921875 -16.703125 L 11.671875 -16.703125 L 10.921875 -12.453125 L 8.171875 -12.453125 L 5.984375 0 L 0.84375 0 L 3.015625 -12.453125 L 1.171875 -12.453125 L 1.921875 -16.703125 L 3.765625 -16.703125 L 3.859375 -17.171875 C 4.234375 -19.222656 5.101562 -20.78125 6.46875 -21.84375 C 7.84375 -22.914062 9.664062 -23.453125 11.9375 -23.453125 C 12.300781 -23.453125 12.570312 -23.441406 12.75 -23.421875 Z M 12 -19.09375 "/></g></g></g><g fill="#383640" fill-opacity="1"><g transform="translate(187.907407, 31.881198)"><g><path d="M 7.953125 0.234375 C 6.523438 0.234375 5.25 -0.0507812 4.125 -0.625 C 3.007812 -1.207031 2.144531 -2.023438 1.53125 -3.078125 C 0.925781 -4.140625 0.625 -5.367188 0.625 -6.765625 C 0.625 -8.660156 1.070312 -10.382812 1.96875 -11.9375 C 2.875 -13.488281 4.113281 -14.707031 5.6875 -15.59375 C 7.257812 -16.488281 9.015625 -16.9375 10.953125 -16.9375 C 12.390625 -16.9375 13.671875 -16.640625 14.796875 -16.046875 C 15.921875 -15.460938 16.789062 -14.640625 17.40625 -13.578125 C 18.03125 -12.523438 18.34375 -11.300781 18.34375 -9.90625 C 18.34375 -7.988281 17.890625 -6.253906 16.984375 -4.703125 C 16.078125 -3.160156 14.828125 -1.953125 13.234375 -1.078125 C 11.648438 -0.203125 9.890625 0.234375 7.953125 0.234375 Z M 8.671875 -4.15625 C 9.515625 -4.15625 10.269531 -4.410156 10.9375 -4.921875 C 11.601562 -5.429688 12.117188 -6.085938 12.484375 -6.890625 C 12.859375 -7.703125 13.046875 -8.546875 13.046875 -9.421875 C 13.046875 -10.421875 12.773438 -11.1875 12.234375 -11.71875 C 11.703125 -12.257812 11.023438 -12.53125 10.203125 -12.53125 C 9.347656 -12.53125 8.59375 -12.273438 7.9375 -11.765625 C 7.289062 -11.265625 6.785156 -10.601562 6.421875 -9.78125 C 6.066406 -8.96875 5.890625 -8.113281 5.890625 -7.21875 C 5.890625 -6.238281 6.148438 -5.484375 6.671875 -4.953125 C 7.191406 -4.421875 7.859375 -4.15625 8.671875 -4.15625 Z M 8.671875 -4.15625 "/></g></g></g><g fill="#383640" fill-opacity="1"><g transform="translate(206.971659, 31.881198)"><g><path d="M 7.84375 -13.671875 C 8.613281 -14.671875 9.503906 -15.453125 10.515625 -16.015625 C 11.523438 -16.585938 12.578125 -16.875 13.671875 -16.875 L 12.71875 -11.453125 L 11.3125 -11.453125 C 10.03125 -11.453125 9.019531 -11.175781 8.28125 -10.625 C 7.550781 -10.082031 7.066406 -9.125 6.828125 -7.75 L 5.453125 0 L 0.328125 0 L 3.265625 -16.703125 L 8.375 -16.703125 Z M 7.84375 -13.671875 "/></g></g></g><g fill="#383640" fill-opacity="1"><g transform="translate(219.780934, 31.881198)"><g><path d="M 24.625 -16.875 C 26.414062 -16.875 27.816406 -16.398438 28.828125 -15.453125 C 29.835938 -14.503906 30.34375 -13.179688 30.34375 -11.484375 C 30.34375 -10.972656 30.28125 -10.394531 30.15625 -9.75 L 28.421875 0 L 23.34375 0 L 24.953125 -9.0625 C 24.992188 -9.257812 25.015625 -9.53125 25.015625 -9.875 C 25.015625 -10.707031 24.78125 -11.34375 24.3125 -11.78125 C 23.84375 -12.226562 23.1875 -12.453125 22.34375 -12.453125 C 21.351562 -12.453125 20.519531 -12.15625 19.84375 -11.5625 C 19.164062 -10.976562 18.734375 -10.144531 18.546875 -9.0625 L 16.9375 0 L 11.84375 0 L 13.46875 -9.0625 C 13.507812 -9.257812 13.53125 -9.53125 13.53125 -9.875 C 13.53125 -10.707031 13.296875 -11.34375 12.828125 -11.78125 C 12.359375 -12.226562 11.703125 -12.453125 10.859375 -12.453125 C 9.859375 -12.453125 9.019531 -12.15625 8.34375 -11.5625 C 7.664062 -10.976562 7.238281 -10.144531 7.0625 -9.0625 L 7.0625 -9.21875 L 5.453125 0 L 0.328125 0 L 3.265625 -16.703125 L 8.375 -16.703125 L 8.015625 -14.578125 C 8.648438 -15.296875 9.421875 -15.859375 10.328125 -16.265625 C 11.242188 -16.671875 12.226562 -16.875 13.28125 -16.875 C 14.5625 -16.875 15.644531 -16.601562 16.53125 -16.0625 C 17.414062 -15.53125 18.050781 -14.753906 18.4375 -13.734375 C 19.164062 -14.671875 20.078125 -15.425781 21.171875 -16 C 22.273438 -16.582031 23.425781 -16.875 24.625 -16.875 Z M 24.625 -16.875 "/></g></g></g><g fill="#383640" fill-opacity="1"><g transform="translate(251.474888, 31.881198)"><g><path d="M 0.8125 -8.375 C 1.101562 -10.09375 1.6875 -11.597656 2.5625 -12.890625 C 3.445312 -14.191406 4.503906 -15.191406 5.734375 -15.890625 C 6.972656 -16.585938 8.285156 -16.9375 9.671875 -16.9375 C 10.847656 -16.9375 11.832031 -16.695312 12.625 -16.21875 C 13.425781 -15.738281 14.003906 -15.109375 14.359375 -14.328125 L 14.78125 -16.703125 L 19.890625 -16.703125 L 16.9375 0 L 11.8125 0 L 12.265625 -2.359375 C 11.628906 -1.585938 10.820312 -0.960938 9.84375 -0.484375 C 8.863281 -0.00390625 7.785156 0.234375 6.609375 0.234375 C 5.429688 0.234375 4.390625 -0.03125 3.484375 -0.5625 C 2.578125 -1.101562 1.875 -1.867188 1.375 -2.859375 C 0.875 -3.847656 0.625 -5.007812 0.625 -6.34375 C 0.625 -6.976562 0.6875 -7.65625 0.8125 -8.375 Z M 13.3125 -8.34375 C 13.375 -8.707031 13.40625 -9.035156 13.40625 -9.328125 C 13.40625 -10.304688 13.117188 -11.078125 12.546875 -11.640625 C 11.984375 -12.203125 11.265625 -12.484375 10.390625 -12.484375 C 9.367188 -12.484375 8.4375 -12.117188 7.59375 -11.390625 C 6.757812 -10.660156 6.234375 -9.65625 6.015625 -8.375 C 5.953125 -8.019531 5.921875 -7.691406 5.921875 -7.390625 C 5.921875 -6.410156 6.203125 -5.632812 6.765625 -5.0625 C 7.335938 -4.5 8.054688 -4.21875 8.921875 -4.21875 C 9.929688 -4.21875 10.851562 -4.585938 11.6875 -5.328125 C 12.53125 -6.066406 13.070312 -7.070312 13.3125 -8.34375 Z M 13.3125 -8.34375 "/></g></g></g><g fill="#383640" fill-opacity="1"><g transform="translate(271.796131, 31.881198)"><g><path d="M 13.46875 -16.875 C 15.144531 -16.875 16.457031 -16.40625 17.40625 -15.46875 C 18.363281 -14.53125 18.84375 -13.222656 18.84375 -11.546875 C 18.84375 -10.992188 18.785156 -10.394531 18.671875 -9.75 L 16.9375 0 L 11.84375 0 L 13.46875 -9.0625 C 13.519531 -9.40625 13.546875 -9.707031 13.546875 -9.96875 C 13.546875 -10.800781 13.3125 -11.445312 12.84375 -11.90625 C 12.375 -12.363281 11.722656 -12.59375 10.890625 -12.59375 C 9.890625 -12.59375 9.050781 -12.28125 8.375 -11.65625 C 7.695312 -11.039062 7.257812 -10.175781 7.0625 -9.0625 L 7.0625 -9.21875 L 5.453125 0 L 0.328125 0 L 3.265625 -16.703125 L 8.375 -16.703125 L 7.984375 -14.453125 C 8.640625 -15.191406 9.441406 -15.78125 10.390625 -16.21875 C 11.335938 -16.65625 12.363281 -16.875 13.46875 -16.875 Z M 13.46875 -16.875 "/></g></g></g><g fill="#383640" fill-opacity="1"><g transform="translate(291.967746, 31.881198)"><g><path d="M 0.8125 -8.34375 C 1.101562 -10.082031 1.71875 -11.597656 2.65625 -12.890625 C 3.59375 -14.191406 4.753906 -15.191406 6.140625 -15.890625 C 7.535156 -16.585938 9.050781 -16.9375 10.6875 -16.9375 C 12.78125 -16.9375 14.429688 -16.382812 15.640625 -15.28125 C 16.859375 -14.1875 17.507812 -12.644531 17.59375 -10.65625 L 12.140625 -10.65625 C 11.921875 -11.925781 11.144531 -12.5625 9.8125 -12.5625 C 8.875 -12.5625 8.066406 -12.195312 7.390625 -11.46875 C 6.710938 -10.75 6.253906 -9.707031 6.015625 -8.34375 C 5.929688 -7.925781 5.890625 -7.488281 5.890625 -7.03125 C 5.890625 -6.09375 6.109375 -5.375 6.546875 -4.875 C 6.992188 -4.375 7.59375 -4.125 8.34375 -4.125 C 9.664062 -4.125 10.65625 -4.765625 11.3125 -6.046875 L 16.78125 -6.046875 C 16.007812 -4.085938 14.8125 -2.550781 13.1875 -1.4375 C 11.570312 -0.320312 9.726562 0.234375 7.65625 0.234375 C 5.5 0.234375 3.785156 -0.359375 2.515625 -1.546875 C 1.253906 -2.734375 0.625 -4.351562 0.625 -6.40625 C 0.625 -7.019531 0.6875 -7.664062 0.8125 -8.34375 Z M 0.8125 -8.34375 "/></g></g></g><g fill="#383640" fill-opacity="1"><g transform="translate(310.074284, 31.881198)"><g><path d="M 10.734375 -16.9375 C 12.890625 -16.9375 14.601562 -16.351562 15.875 -15.1875 C 17.144531 -14.019531 17.78125 -12.425781 17.78125 -10.40625 C 17.78125 -9.75 17.726562 -9.160156 17.625 -8.640625 C 17.539062 -8.179688 17.421875 -7.695312 17.265625 -7.1875 L 5.6875 -7.1875 C 5.664062 -7.0625 5.65625 -6.867188 5.65625 -6.609375 C 5.65625 -5.734375 5.894531 -5.066406 6.375 -4.609375 C 6.851562 -4.148438 7.488281 -3.921875 8.28125 -3.921875 C 9.5625 -3.921875 10.539062 -4.457031 11.21875 -5.53125 L 16.671875 -5.53125 C 15.953125 -3.832031 14.78125 -2.445312 13.15625 -1.375 C 11.539062 -0.300781 9.726562 0.234375 7.71875 0.234375 C 5.5625 0.234375 3.835938 -0.359375 2.546875 -1.546875 C 1.265625 -2.742188 0.625 -4.375 0.625 -6.4375 C 0.625 -7.050781 0.6875 -7.6875 0.8125 -8.34375 C 1.101562 -10.082031 1.71875 -11.597656 2.65625 -12.890625 C 3.59375 -14.191406 4.757812 -15.191406 6.15625 -15.890625 C 7.5625 -16.585938 9.085938 -16.9375 10.734375 -16.9375 Z M 12.59375 -9.78125 C 12.632812 -10.0625 12.65625 -10.253906 12.65625 -10.359375 C 12.65625 -11.148438 12.40625 -11.757812 11.90625 -12.1875 C 11.40625 -12.625 10.75 -12.84375 9.9375 -12.84375 C 9.0625 -12.84375 8.285156 -12.578125 7.609375 -12.046875 C 6.941406 -11.515625 6.457031 -10.757812 6.15625 -9.78125 Z M 12.59375 -9.78125 "/></g></g></g></g></g></svg>